<svg id="bb0378bb-9be1-448e-acd8-f0ad8e045c9b" data-name="Layer 1" xmlns="http://www.w3.org/2000/svg" xmlns:xlink="http://www.w3.org/1999/xlink" viewBox="0 0 450 450"><defs><style>.a6670df3-b85c-407b-a33f-ca66853c406a{fill:url(#ad921083-89b8-49da-a8a9-0d995591dab7);filter:url(#b532e14c-3baf-43cf-b81b-895a35694974);}.b3e96655-089f-4122-878c-ef4dc1d9f8c5{filter:url(#b6c27b0a-463f-407f-8f4d-9330729d2e4c);}.b8b5d773-d4ee-4cdc-a555-86c734bce32c{fill:#fff;}.a23a66d4-4cb6-4904-8c40-5dfb0ab57310{fill:#371a45;}.b34366f7-887a-4f5d-8d95-1dfea8473856{opacity:0.2;}.b48f16b7-3773-4094-9144-2640234343d9{fill:#23112e;}.a3cc9b35-d391-48c0-86ab-af1d0c8a9167{opacity:0.5;}.a2689884-80b5-496d-a2fe-77f5d7b9b23c{fill:#77d2f7;}.fe12d7ae-170f-4536-93c9-9a0d6ce3dc3f{opacity:0.61;}.a35e408e-e7b7-4454-91c0-483adf9dbc76{fill:#f2c329;}.f5e3a747-228e-4ff4-a7da-c9fb60e3dde8{opacity:0.3;}.eada591b-3447-4a3f-8583-571e581cf1a8{fill:#242466;}</style><linearGradient id="ad921083-89b8-49da-a8a9-0d995591dab7" x1="179.68" y1="61.32" x2="179.68" y2="407.82" gradientTransform="translate(45.79)" gradientUnits="userSpaceOnUse"><stop offset="0" stop-color="#bb428a"/><stop offset="1" stop-color="#2e265f"/></linearGradient><filter id="b532e14c-3baf-43cf-b81b-895a35694974" x="0.04" y="5.78" width="455.04" height="463.2" filterUnits="userSpaceOnUse"><feOffset dx="2" dy="2" input="SourceAlpha"/><feGaussianBlur stdDeviation="20" result="f9736111-ace2-4247-a213-368af5eae74d"/><feFlood/><feComposite operator="in" in2="f9736111-ace2-4247-a213-368af5eae74d"/><feComposite in="SourceGraphic"/></filter><filter id="b6c27b0a-463f-407f-8f4d-9330729d2e4c"><feOffset dx="2" dy="2" input="SourceAlpha"/><feGaussianBlur stdDeviation="12" result="faba6786-58d0-487d-847a-e829e86bcb70"/><feFlood/><feComposite operator="in" in2="faba6786-58d0-487d-847a-e829e86bcb70"/><feComposite in="SourceGraphic"/></filter></defs><path class="a6670df3-b85c-407b-a33f-ca66853c406a" d="M392.43,242.1c5.1,89-29.75,167.85-164.74,164.73C136.74,404.73,34.25,328.43,63,242.1c27.54-82.83,92.4-137.37,164.73-164.73C349,31.47,384.63,106.16,392.43,242.1Z"/><g class="b3e96655-089f-4122-878c-ef4dc1d9f8c5"><path class="b8b5d773-d4ee-4cdc-a555-86c734bce32c" d="M333.16,302.86s-3,6.19-7.38,3.1c-2.55-1.78-2.45-5.81-3.32-10.22a16.8,16.8,0,0,0-5-9.69s-2.64,10-5.37,11.23c0,0-5.67,2.11-5-5.44v-3.61s-2.77-7.5,0-11.4l-.44-.34h0l-3.41-2.7a209.93,209.93,0,0,1-10.05,28.32l-.06.12a.39.39,0,0,1,0,.09s0,.07,0,.11-.05.1-.08.16-.05.09-.07.15c-2,4.65-4.41,9.51-7.09,14.25l0,.06c-1.88,3.34-3.92,6.64-6.11,9.78a10.73,10.73,0,0,1-6,4.26c-4.26,1.14-11.69,1.58-22.24-3.32,0,0-12,11.54-13.5,23.07s-1.83,21.25-1.83,21.25-6.9,23.21-19.7,27.71-21.81,6-21.95-7.74c0-.92,0-1.81.05-2.67.55-11.88,5.44-17,5.44-17-3.05-16.78-3.88-32.37-1.18-46.1.3-1.54.65-3.06,1-4.55,0,0-5-.35-8.37-2.39l-8.23,8.16s-8.12,8.37-6,27a8.25,8.25,0,0,1-2.17,6.6c-4,4.35-11.64,12.58-16.33,17.77-6.61,7.32-19.84,7.88-21.38-1.55a16.55,16.55,0,0,1-.19-3.4c.33-8.88,6.38-19.11,6.38-19.11s-12.1-52.33,31.23-78l1.41-5.11s-4.37-7.88,7.52-12.1c-.86,0-1.73-.08-2.58-.14-18.4-1.12-34.75-6.1-45.93-20.79-8.55-8.66-20.69-17.88-16.51-24.51,0,0-2.13-13.07,6.74-14.45a12.17,12.17,0,0,1,4,.1s9.47,9.38,13.69,12.85c0,0-1.71-10.23,6.52-9.79a2.06,2.06,0,0,1,1.93,1.84c.18,1.86.61,4.83,1.49,6.14,1.34,2,1.83,9.36,1.83,9.36s4.18,5.39,17.77,4.17c0,0,12.29-6,22.42-7.69L283,224.4l.44.06h0c21.11,2.86,46.69,23.21,54.33,49.84C337.76,274.3,347.51,291.75,333.16,302.86Z"/><path class="a23a66d4-4cb6-4904-8c40-5dfb0ab57310" d="M202.87,404.68A10,10,0,0,1,197,403c-2.78-2-4.16-5.54-4.21-11,0-1,0-1.89.05-2.78.46-10,3.92-15.56,5.32-17.4-3.22-18.07-3.56-33.11-1-46,.19-1,.39-1.88.6-2.78a23.23,23.23,0,0,1-6-1.76l-7.34,7.29c0,.05-7.5,8.11-5.5,25.59a10,10,0,0,1-2.6,7.94C171.4,367.48,164.39,375.06,160,380s-11.66,7.19-17.28,5.54a9.53,9.53,0,0,1-7-7.94,19.08,19.08,0,0,1-.21-3.75c.3-8.07,5-17,6.28-19.32a90.11,90.11,0,0,1-.52-29.34c2.22-15.1,9.59-35.89,32.09-49.51l1.07-3.88a9.12,9.12,0,0,1-.13-6.56,10.2,10.2,0,0,1,3.36-4.38c-20.17-1.81-34.12-8.56-43.71-21.12-1.5-1.52-3.15-3.09-4.75-4.61-7.68-7.31-15.61-14.87-12.23-21.35-.23-2-.65-8.14,2.29-12.2a8.74,8.74,0,0,1,5.94-3.57,14.08,14.08,0,0,1,4.6.1,1.75,1.75,0,0,1,.9.47c.07.07,6.23,6.17,10.76,10.28a9.55,9.55,0,0,1,2.13-5.41,7.38,7.38,0,0,1,6.22-2.29,3.75,3.75,0,0,1,3.52,3.35c.3,3.08.82,4.79,1.21,5.36,1.35,2,1.9,7.46,2.07,9.57,1.12,1,5.48,4.1,15.68,3.26,2-.94,13.08-6.12,22.6-7.7a1.48,1.48,0,0,1,.42,0l87.88,7.78.47.06h.06c10.83,1.47,22.9,7.45,33.1,16.41,10.89,9.56,18.9,21.8,22.57,34.47,1,2,9.24,19.07-4.84,30.29-.56,1-2.23,3.67-4.92,4.38a5.61,5.61,0,0,1-4.76-1c-2.55-1.78-3-5-3.52-8.35-.14-.95-.29-1.93-.48-2.92a16.71,16.71,0,0,0-2.58-6.6c-1.16,3.61-3.07,8.29-5.44,9.35l-.1,0c-.31.11-3.08,1.08-5.25-.58-1.6-1.23-2.27-3.42-2-6.51v-3.25c-.51-1.48-2.22-7.09-.51-11.24l-.75-.6a219.17,219.17,0,0,1-9.45,26.1l0,.08,0,.09,0,.08-.06.15-.08.16a.21.21,0,0,0,0,.07c-2.25,5.11-4.65,9.94-7.14,14.35,0,.05-.05.1-.08.14-2,3.51-4.05,6.83-6.17,9.89a12.42,12.42,0,0,1-7,4.92c-4.48,1.2-11.93,1.62-22.29-2.93-2.63,2.77-11,12.15-12.21,21.28-1.52,11.31-1.81,21-1.82,21.07a1.59,1.59,0,0,1-.06.43c-.3,1-7.3,24.09-20.76,28.82C211.28,403.38,206.61,404.68,202.87,404.68Zm-11.45-87.05a1.7,1.7,0,0,1,.87.24c3,1.8,7.58,2.15,7.62,2.16a1.69,1.69,0,0,1,1.51,2.11c-.37,1.42-.71,2.88-1,4.45-2.48,12.6-2.1,27.47,1.18,45.47a1.64,1.64,0,0,1-.44,1.46s-4.47,4.93-5,15.94c0,.82-.06,1.69-.05,2.57.05,4.27,1,7,2.78,8.25,3.06,2.14,9,.71,16.92-2.08,11.24-3.95,17.87-24.17,18.58-26.41.05-1.55.42-10.67,1.83-21.18,1.61-12,13.5-23.58,14-24.06a1.68,1.68,0,0,1,1.88-.32c10,4.64,17,4.32,21.09,3.22a9,9,0,0,0,5.07-3.59c2.07-3,4.1-6.22,6-9.65v0l0,0c2.44-4.33,4.79-9.06,7-14.09a1.33,1.33,0,0,1,.11-.24l0-.09,0-.07a1.59,1.59,0,0,1,.09-.2.24.24,0,0,0,0-.07,207.94,207.94,0,0,0,10-28,1.69,1.69,0,0,1,2.69-.9l3.41,2.7a.3.3,0,0,1,.08.08l.35.26a1.69,1.69,0,0,1,.34,2.3c-1.81,2.59-.39,8.11.25,9.84a1.7,1.7,0,0,1,.1.59v3.61a.86.86,0,0,1,0,.16c-.17,1.81.08,3.12.68,3.59a2.45,2.45,0,0,0,2,.12c1.06-.59,3.12-5.35,4.38-10.09a1.7,1.7,0,0,1,1.16-1.19,1.66,1.66,0,0,1,1.61.38,18.47,18.47,0,0,1,5.51,10.61c.21,1.06.36,2.09.51,3.07.42,2.87.76,5.13,2.11,6.08a2.26,2.26,0,0,0,2,.5c1.4-.36,2.61-2.29,2.93-2.94a1.51,1.51,0,0,1,.49-.6c13.05-10.11,4.52-25.74,4.15-26.41a2.17,2.17,0,0,1-.15-.35c-7.63-26.64-33.38-46-52.89-48.63h-.14l-.31,0-87.62-7.76c-9.72,1.68-21.63,7.45-21.75,7.51a1.48,1.48,0,0,1-.59.16c-14.35,1.29-19.06-4.57-19.25-4.82a1.63,1.63,0,0,1-.35-.92c-.22-3.34-.88-7.54-1.54-8.52-.86-1.27-1.46-3.59-1.78-6.93a.36.36,0,0,0-.33-.31,4.19,4.19,0,0,0-3.53,1.16c-1.62,1.8-1.45,5.42-1.25,6.66a1.68,1.68,0,0,1-2.73,1.58c-3.8-3.12-11.57-10.74-13.42-12.57a10.28,10.28,0,0,0-3,0,5.42,5.42,0,0,0-3.74,2.22c-2.2,3-1.9,8.46-1.6,10.3a1.73,1.73,0,0,1-.24,1.17c-2.69,4.26,4.47,11.07,11.38,17.66,1.64,1.56,3.34,3.18,4.9,4.76l.14.16C146,250,160.19,256.43,181.2,257.71c.85.06,1.7.1,2.55.13a1.69,1.69,0,0,1,.5,3.28c-3.72,1.32-6,3.1-6.85,5.28a5.82,5.82,0,0,0,.23,4.41,1.66,1.66,0,0,1,.15,1.27l-1.4,5.11a1.68,1.68,0,0,1-.77,1c-17.48,10.37-27.92,26.29-31,47.34a86.93,86.93,0,0,0,.59,28.86,1.67,1.67,0,0,1-.19,1.24c-.06.1-5.84,10-6.14,18.32A15.14,15.14,0,0,0,139,377a6.23,6.23,0,0,0,4.65,5.25c4.36,1.29,10.3-.68,13.82-4.56,4.44-4.92,11.45-12.51,16.34-17.78a6.59,6.59,0,0,0,1.73-5.26c-2.2-19.19,6.09-28,6.45-28.36l8.25-8.18A1.68,1.68,0,0,1,191.42,317.63Zm92.8-1.21h0Zm.15-.32h0Z"/><path class="b8b5d773-d4ee-4cdc-a555-86c734bce32c" d="M173.87,171.84a71.39,71.39,0,0,0,12.85,34,73.38,73.38,0,0,0,4.85,6.11c.84,1,1.73,1.91,2.64,2.84a74.31,74.31,0,0,0,8.74,7.61,73.42,73.42,0,0,0,18.8,10.06c1.32.47,2.65.91,4,1.31a73.39,73.39,0,0,0,71.66-17.07,71.32,71.32,0,0,0,1.33-101.81,73.36,73.36,0,0,0-18-13.45q-1.14-.62-2.31-1.17-3.12-1.52-6.33-2.72a74.28,74.28,0,0,0-30.9-4.54c-1.65.1-3.3.27-4.95.49a71.29,71.29,0,0,0-7.37,1.37A72.24,72.24,0,0,0,195.53,113,71,71,0,0,0,173.87,171.84Z"/><path class="a23a66d4-4cb6-4904-8c40-5dfb0ab57310" d="M246.82,237.08A74.24,74.24,0,0,1,225.67,234c-1.32-.4-2.67-.84-4-1.31A73.84,73.84,0,0,1,194.06,215c-1-1-1.86-2-2.65-2.84a76.47,76.47,0,0,1-4.86-6.13,71.88,71.88,0,0,1-12.88-34.14,71,71,0,0,1,21.72-59,72.76,72.76,0,0,1,33.4-18.17,74.32,74.32,0,0,1,7.39-1.38c1.62-.21,3.29-.38,5-.49a74.78,74.78,0,0,1,15.68.63,73.64,73.64,0,0,1,15.3,3.93c2.14.8,4.28,1.72,6.35,2.73.83.39,1.59.78,2.32,1.17a73.55,73.55,0,0,1,18.07,13.49,71.66,71.66,0,0,1,20.76,51.65,70.84,70.84,0,0,1-22.1,50.44A73.34,73.34,0,0,1,246.82,237.08Zm-72.74-65.26a71.5,71.5,0,0,0,12.8,33.94,73.89,73.89,0,0,0,4.84,6.09c.78.89,1.64,1.82,2.63,2.84a73.88,73.88,0,0,0,8.73,7.58,71.6,71.6,0,0,0,8.2,5.27,73.55,73.55,0,0,0,10.53,4.77c1.32.47,2.66.91,4,1.3a73.33,73.33,0,0,0,71.46-17,70.49,70.49,0,0,0,22-50.16,71.21,71.21,0,0,0-20.65-51.35,73.07,73.07,0,0,0-18-13.42c-.72-.39-1.47-.77-2.3-1.16-2.06-1-4.19-1.92-6.31-2.72a74.1,74.1,0,0,0-30.81-4.53c-1.67.11-3.34.27-5,.49a73.32,73.32,0,0,0-7.34,1.37,72.44,72.44,0,0,0-33.22,18.06A70.55,70.55,0,0,0,174.08,171.82Z"/><g class="b34366f7-887a-4f5d-8d95-1dfea8473856"><path class="a23a66d4-4cb6-4904-8c40-5dfb0ab57310" d="M297.39,216.73a73.34,73.34,0,0,1-71.66,17.08c-1.34-.4-2.66-.84-4-1.31a73.05,73.05,0,0,1-10.57-4.78,73.93,73.93,0,0,1-8.22-5.28,72.8,72.8,0,0,1-8.76-7.61c-.9-.94-1.79-1.88-2.63-2.84a71.49,71.49,0,0,1-17-59.91,71.5,71.5,0,0,0,12.65,32.39,74,74,0,0,0,4.85,6.12c.85,1,1.73,1.9,2.64,2.84a73.39,73.39,0,0,0,8.75,7.6,73.53,73.53,0,0,0,18.79,10.07c1.32.47,2.65.91,4,1.3a73.37,73.37,0,0,0,71.66-17.07,70.83,70.83,0,0,0,21-39.07A70.92,70.92,0,0,1,297.39,216.73Z"/></g><path class="a23a66d4-4cb6-4904-8c40-5dfb0ab57310" d="M246.82,238.46a75.86,75.86,0,0,1-21.54-3.13c-1.35-.41-2.72-.86-4.07-1.34A74.78,74.78,0,0,1,202,223.7a75.47,75.47,0,0,1-8.93-7.76c-1-1.05-1.9-2-2.7-2.91a75.31,75.31,0,0,1-4.95-6.24A73.25,73.25,0,0,1,172.3,172h0a72.34,72.34,0,0,1,22.14-60.12,74.24,74.24,0,0,1,34-18.51c2.42-.58,4.95-1.05,7.52-1.4,1.65-.22,3.36-.39,5.07-.5a76,76,0,0,1,31.55,4.64c2.18.82,4.36,1.75,6.47,2.78.85.4,1.62.8,2.37,1.2a75.07,75.07,0,0,1,18.4,13.73A73,73,0,0,1,321,166.46a72.2,72.2,0,0,1-22.52,51.42A74.75,74.75,0,0,1,246.82,238.46Zm-71.37-66.78a70.46,70.46,0,0,0,17.3,39.26c.77.87,1.61,1.78,2.59,2.79a71.7,71.7,0,0,0,8.55,7.43,70.71,70.71,0,0,0,8.05,5.17A72.53,72.53,0,0,0,222.28,231c1.29.46,2.61.89,3.91,1.28a72,72,0,0,0,70.11-16.71,69.11,69.11,0,0,0,21.54-49.18A69.83,69.83,0,0,0,297.59,116,71.87,71.87,0,0,0,280,102.88c-.71-.39-1.45-.76-2.25-1.14-2-1-4.12-1.89-6.21-2.67a72.64,72.64,0,0,0-30.23-4.45c-1.64.11-3.28.27-4.85.48a73,73,0,0,0-7.21,1.35,71,71,0,0,0-32.59,17.72A69.15,69.15,0,0,0,175.45,171.68Z"/><path class="a23a66d4-4cb6-4904-8c40-5dfb0ab57310" d="M246.82,238.92a76.42,76.42,0,0,1-21.67-3.15c-1.36-.41-2.73-.86-4.09-1.35a75.57,75.57,0,0,1-10.87-4.92,74.61,74.61,0,0,1-8.45-5.43,75.55,75.55,0,0,1-9-7.81c-1-1.06-1.91-2-2.71-2.92a76.26,76.26,0,0,1-5-6.28,73.7,73.7,0,0,1-13.21-35,72.79,72.79,0,0,1,22.27-60.5,75.15,75.15,0,0,1,41.81-20c1.66-.23,3.38-.4,5.1-.51a76.33,76.33,0,0,1,31.74,4.67c2.2.82,4.39,1.76,6.51,2.8.85.4,1.64.8,2.39,1.21a75.21,75.21,0,0,1,18.5,13.81,73.4,73.4,0,0,1,21.29,53,72.67,72.67,0,0,1-22.66,51.74A75.2,75.2,0,0,1,246.82,238.92ZM175.9,171.63a69.7,69.7,0,0,0,12.48,33.07,73.64,73.64,0,0,0,4.72,5.94c.76.86,1.6,1.77,2.57,2.77a71.4,71.4,0,0,0,26.77,17.17c1.28.46,2.59.89,3.88,1.28A71.48,71.48,0,0,0,296,215.26a68.6,68.6,0,0,0,21.4-48.86,69.36,69.36,0,0,0-20.12-50,71.08,71.08,0,0,0-17.51-13.07c-.72-.39-1.44-.76-2.24-1.14-2-1-4.09-1.87-6.17-2.65a72.42,72.42,0,0,0-30-4.42c-1.63.11-3.25.27-4.82.48a72.58,72.58,0,0,0-7.16,1.33,70.58,70.58,0,0,0-32.38,17.61,68.77,68.77,0,0,0-21,57.13Z"/><path class="a23a66d4-4cb6-4904-8c40-5dfb0ab57310" d="M178.15,189.83c28,43.58,89.85,46.6,112.5.93,15.41-31.08-3.61-70.13-34.89-83-22.77-9.36-49.09-8.7-73.28,22.1,0,0-8.56,15.28-8.66,27.79a162.87,162.87,0,0,0,1.94,24.7Z"/><path class="b48f16b7-3773-4094-9144-2640234343d9" d="M290.65,190.76c-22.65,45.67-84.52,42.65-112.51-.93l-.48-1.52c40.2,25.72,94.3,18.16,118.07-27.59A53.52,53.52,0,0,1,290.65,190.76Z"/><path class="a23a66d4-4cb6-4904-8c40-5dfb0ab57310" d="M238.23,233.26a78.72,78.72,0,0,1-36.22-9l-.27-.16a76.56,76.56,0,0,1-9-7.82c-1-1.06-1.91-2-2.71-2.92a76.26,76.26,0,0,1-5-6.28,73.7,73.7,0,0,1-13.21-35,72.79,72.79,0,0,1,22.27-60.5,74.56,74.56,0,0,1,34.25-18.62l.2-.05h.21c9.65-.28,19.85,1.76,30.33,6.07,18.84,7.76,34.54,24.2,42,44,6.71,17.83,6.1,36.33-1.72,52.1-8.52,17.16-22.17,29.21-39.48,34.85A69.89,69.89,0,0,1,238.23,233.26ZM204,220.7c17.39,9,37.29,11,54.6,5.31,16.24-5.3,29.07-16.64,37.08-32.79,7.32-14.75,7.87-32.1,1.57-48.85-7.06-18.75-21.92-34.33-39.74-41.66-9.86-4.06-19.43-6-28.44-5.77a70.64,70.64,0,0,0-32.17,17.56,68.74,68.74,0,0,0-21,57.13,69.7,69.7,0,0,0,12.48,33.07,73.64,73.64,0,0,0,4.72,5.94c.76.86,1.6,1.77,2.57,2.77A70.63,70.63,0,0,0,204,220.7Z"/><path class="a23a66d4-4cb6-4904-8c40-5dfb0ab57310" d="M237.77,224.63c-23.72,0-46.58-12.92-60.34-34.35l-.06-.09-2.44-7.71a165.36,165.36,0,0,1-2-24.85c.1-12.58,8.41-27.56,8.77-28.19l.07-.11c20.83-26.54,45.82-34.06,74.26-22.36,16.52,6.8,30.29,21.23,36.82,38.58,5.88,15.61,5.34,31.79-1.49,45.58-9.93,20-28.17,32.19-50.05,33.4C240.16,224.59,239,224.63,237.77,224.63Zm-58.85-35.17c14.12,21.94,38,34.73,62.35,33.38,21.25-1.17,39-13,48.62-32.46,6.63-13.36,7.14-29.07,1.43-44.23-6.37-16.93-19.79-31-35.89-37.61-27.63-11.38-51.94-4.05-72.24,21.78-.56,1-8.43,15.56-8.52,27.33a162.59,162.59,0,0,0,1.92,24.49Z"/><path class="b8b5d773-d4ee-4cdc-a555-86c734bce32c" d="M321.76,200.28c-4.71,13.4-16.69,21.84-26.76,18.85s-14.41-16.27-9.7-29.66l.09-.26c4.77-13.24,16.67-21.55,26.67-18.59,7.77,2.31,12.13,10.76,11.55,20.66A33.42,33.42,0,0,1,321.76,200.28Z"/><g class="b34366f7-887a-4f5d-8d95-1dfea8473856"><path class="a23a66d4-4cb6-4904-8c40-5dfb0ab57310" d="M321.76,200.28c-4.71,13.4-16.69,21.84-26.76,18.85s-14.41-16.27-9.7-29.66l.09-.26a5.23,5.23,0,0,0,4.37,3.81c4.37.41,14.73-6,14.73-6s8.3,1.81,19.12,4.29A33.42,33.42,0,0,1,321.76,200.28Z"/></g><path class="a23a66d4-4cb6-4904-8c40-5dfb0ab57310" d="M299.13,221.76a16.41,16.41,0,0,1-4.71-.68,17.06,17.06,0,0,1-10.4-9c-3.32-6.52-3.56-15-.64-23.31,5.05-14.38,18.18-23.41,29.26-20.12a17.12,17.12,0,0,1,10.4,9c3.32,6.52,3.56,15,.64,23.31C319.33,213.34,309,221.76,299.13,221.76Zm8.7-49.7c-8.13,0-16.83,7.35-20.61,18.08-2.51,7.14-2.35,14.66.44,20.1a13.08,13.08,0,0,0,7.92,6.93c9,2.68,19.91-5.2,24.26-17.56h0c2.51-7.14,2.34-14.66-.44-20.1a13.08,13.08,0,0,0-7.92-6.93A12.93,12.93,0,0,0,307.83,172.06Z"/><ellipse class="b8b5d773-d4ee-4cdc-a555-86c734bce32c" cx="308.85" cy="198.43" rx="20.99" ry="14.31" transform="translate(6.69 406.9) rotate(-67.32)"/><g class="b34366f7-887a-4f5d-8d95-1dfea8473856"><path class="a23a66d4-4cb6-4904-8c40-5dfb0ab57310" d="M301.81,218.17c7.63,2.2,16.95-4.85,20.83-15.76a31.06,31.06,0,0,0,1-3.53c-4.64,6.82-11.57,10.6-17.5,8.89-6.69-1.94-9.9-10.26-8.06-19.58a30.87,30.87,0,0,0-3.07,6.26C291.16,205.36,294.19,216,301.81,218.17Z"/></g><path class="a23a66d4-4cb6-4904-8c40-5dfb0ab57310" d="M304.75,220.63a12.29,12.29,0,0,1-3.5-.5,12.71,12.71,0,0,1-7.81-6.71c-2.7-5.27-2.82-12.61-.31-19.65,4.3-12.09,14.54-19.57,23.31-17a12.7,12.7,0,0,1,7.81,6.72c2.7,5.26,2.82,12.61.31,19.64h0C320.82,213.6,312.6,220.63,304.75,220.63Zm8.28-40.3c-6,0-13,6.19-16.06,14.81-2.14,6-2.1,12.13.09,16.41a8.78,8.78,0,0,0,5.32,4.67c6.48,1.86,14.88-4.77,18.34-14.49h0c2.14-6,2.1-12.14-.09-16.42a8.74,8.74,0,0,0-5.32-4.66A8,8,0,0,0,313,180.33Z"/><g class="a3cc9b35-d391-48c0-86ab-af1d0c8a9167"><path class="b8b5d773-d4ee-4cdc-a555-86c734bce32c" d="M266.93,127.75s-27.32-14.24-50.79-4.09l-.08,0c-4.93,2.14-12.48,8.85-15.63,13.16a60.66,60.66,0,0,0-7.8,14.32c-4.92,12.37-4.88,19.09-4.88,19.09-4.54-9.34-5.62-18.34-1.62-28.68.39-1,.84-2.06,1.33-3.11.12-.24.23-.48.36-.71,0,0,0,0,0,0a75.53,75.53,0,0,1,4.85-7.52c6.25-8.53,16.66-18.21,31.06-19.21C250.65,109.13,268.48,126.86,266.93,127.75Z"/></g><g class="a3cc9b35-d391-48c0-86ab-af1d0c8a9167"><ellipse class="b8b5d773-d4ee-4cdc-a555-86c734bce32c" cx="271.81" cy="167.41" rx="11.21" ry="9.76" transform="translate(76.84 420.17) rotate(-83.98)"/></g><g class="a3cc9b35-d391-48c0-86ab-af1d0c8a9167"><ellipse class="b8b5d773-d4ee-4cdc-a555-86c734bce32c" cx="270.63" cy="189.89" rx="4.63" ry="4.03" transform="translate(77.52 458.23) rotate(-89.32)"/></g><path class="a23a66d4-4cb6-4904-8c40-5dfb0ab57310" d="M156.6,220.14l-1.69,5.2-1.69-5.2a1.78,1.78,0,1,1,3.38,0Z"/><path class="a23a66d4-4cb6-4904-8c40-5dfb0ab57310" d="M118.66,212.4l-.1,0s0,0,0,0l.54,0c4-.25,7.4,2.55,9.08,6a14.85,14.85,0,0,0-2.12-1.77,7,7,0,0,0-6.46-1.07l-.49.17c-.1,0-.34,0-.45.07a1.69,1.69,0,0,1,0-3.38Z"/><path class="a23a66d4-4cb6-4904-8c40-5dfb0ab57310" d="M134.37,222.74c3.89-2,9.89-.83,11.61,3.52-3.47-2.52-7.45-3.07-11.61-3.52Z"/><path class="a23a66d4-4cb6-4904-8c40-5dfb0ab57310" d="M151.25,229.07A11.66,11.66,0,0,1,146,234.7c.36-2.64,2.79-4.9,5.27-5.63Z"/><path class="a23a66d4-4cb6-4904-8c40-5dfb0ab57310" d="M163.18,258.38a1.68,1.68,0,0,1-1.55-1c-7.09-16.78,4.8-32.38,5.31-33a1.69,1.69,0,1,1,2.67,2.07h0c-.11.14-11.18,14.71-4.87,29.65a1.69,1.69,0,0,1-.9,2.21A1.74,1.74,0,0,1,163.18,258.38Z"/><path class="a23a66d4-4cb6-4904-8c40-5dfb0ab57310" d="M182.58,258.25a27.87,27.87,0,0,0,8.35-10.82A30.51,30.51,0,0,1,185.46,260a9.24,9.24,0,0,1-.75.87,1.71,1.71,0,1,1-2.13-2.63Z"/><path class="a23a66d4-4cb6-4904-8c40-5dfb0ab57310" d="M251.11,329.75a1.68,1.68,0,0,1-1.29-2.77c6.15-7.31,14.59-18.07,14.67-18.17a1.69,1.69,0,0,1,1.33-.65c4.39,0,7.33-1.06,8.75-3.14,1.58-2.33,1.39-6.19-.57-11.15a1.69,1.69,0,0,1,.07-1.39,93.27,93.27,0,0,0,8.18-25.63,1.68,1.68,0,0,1,1.89-1.44c16,2.09,20,6.81,20.44,7.35a1.69,1.69,0,0,1-2.66,2.08c-.11-.13-3.55-3.89-16.6-5.86a96.06,96.06,0,0,1-7.91,24.36c2.15,5.8,2.14,10.36-.05,13.58-2,2.91-5.58,4.46-10.71,4.6-1.91,2.43-8.93,11.31-14.24,17.63A1.68,1.68,0,0,1,251.11,329.75Z"/><path class="a23a66d4-4cb6-4904-8c40-5dfb0ab57310" d="M198.14,321.35A32.41,32.41,0,0,1,205,311.07a30.94,30.94,0,0,0-3.51,11,1.71,1.71,0,1,1-3.3-.72Z"/><path class="a23a66d4-4cb6-4904-8c40-5dfb0ab57310" d="M191.42,321a1.63,1.63,0,0,1-.94-.29C177.05,311.72,173,300.11,172,292a40,40,0,0,1,1.1-15.74,1.69,1.69,0,0,1,3.22,1h0a37.35,37.35,0,0,0-1,14.43c1.36,10.78,7.06,19.61,17,26.24a1.69,1.69,0,0,1,.46,2.34A1.67,1.67,0,0,1,191.42,321Z"/><path class="a23a66d4-4cb6-4904-8c40-5dfb0ab57310" d="M179.93,330.19c-18.61,0-35.06-13.68-35.78-14.29a1.69,1.69,0,1,1,2.18-2.58c.17.14,17.7,14.71,36,13.41a1.69,1.69,0,1,1,.24,3.37Q181.24,330.19,179.93,330.19Z"/><path class="a23a66d4-4cb6-4904-8c40-5dfb0ab57310" d="M216.21,353.41a38.9,38.9,0,0,1-20-5.24,1.69,1.69,0,1,1,1.85-2.83c.74.48,17.8,11.19,40-1.46a1.69,1.69,0,0,1,1.67,2.93A46.89,46.89,0,0,1,216.21,353.41Z"/><path class="a23a66d4-4cb6-4904-8c40-5dfb0ab57310" d="M227.08,280.19a20.37,20.37,0,0,1-2.88-.19l-.13,0-18-4.28c-1.21,0-7.19-.47-11-4.56a12.5,12.5,0,0,1-3.12-9.7c.59-9.68,6.91-15.3,10.62-17.78a10.29,10.29,0,0,1,4.83-1.7h0c10.12-.8,25.44,4,33.09,7.75,7.48,3.63,6,12.33,4.14,16.42a1.67,1.67,0,0,1-1.92.95c-1.57-.37-2.08.12-2.25.28-1.22,1.15-1.06,4.59-.8,6.08a1.63,1.63,0,0,1-.22,1.18C236.46,279.4,230.61,280.19,227.08,280.19Zm-2.31-3.52c.72.1,8.22,1,11.43-3.33-.23-1.77-.5-6.16,1.89-8.43a5.06,5.06,0,0,1,3.86-1.33c.83-2.51,2.09-8.38-3-10.83-7.31-3.54-21.86-8.18-31.35-7.42h0a6.73,6.73,0,0,0-3.22,1.14c-3.19,2.13-8.63,6.95-9.12,15.18a9.26,9.26,0,0,0,2.21,7.19c3.19,3.41,8.72,3.49,8.77,3.49a1.58,1.58,0,0,1,.38.05Z"/><ellipse class="a2689884-80b5-496d-a2fe-77f5d7b9b23c" cx="225.19" cy="257.59" rx="4.94" ry="4.48" transform="translate(-92.75 383.99) rotate(-70.52)"/><g class="fe12d7ae-170f-4536-93c9-9a0d6ce3dc3f"><path class="b8b5d773-d4ee-4cdc-a555-86c734bce32c" d="M221.36,258.61a4.72,4.72,0,0,1,5.87-3.16,4.22,4.22,0,0,1,2.46,2.33,4.55,4.55,0,0,0-2.86-4.85,4.73,4.73,0,0,0-5.87,3.16,5.22,5.22,0,0,0,.12,3.82A5.5,5.5,0,0,1,221.36,258.61Z"/></g><path class="a23a66d4-4cb6-4904-8c40-5dfb0ab57310" d="M224.92,263.85a5.56,5.56,0,0,1-1.84-.31,6.1,6.1,0,0,1-3.41-7.9,6.55,6.55,0,0,1,3-3.61,5.63,5.63,0,0,1,4.58-.39,6.1,6.1,0,0,1,3.41,7.9h0a6.51,6.51,0,0,1-3,3.61A5.76,5.76,0,0,1,224.92,263.85Zm.54-9.78a3,3,0,0,0-1.44.38,3.75,3.75,0,0,0-1.76,2.1A3.36,3.36,0,0,0,224,261a2.89,2.89,0,0,0,2.36-.22,3.79,3.79,0,0,0,1.76-2.1h0a3.39,3.39,0,0,0-1.74-4.41A2.91,2.91,0,0,0,225.46,254.07Zm3.95,5h0Z"/><path class="a23a66d4-4cb6-4904-8c40-5dfb0ab57310" d="M225.92,272.05a9.82,9.82,0,0,1-1.21-.07c-9.32-1.06-25.66-3.86-30.35-10.62a7.25,7.25,0,0,1-1.15-6.12,1.68,1.68,0,0,1,3.27.81,4,4,0,0,0,.66,3.39c2.82,4.07,13.28,7.51,28,9.19a7,7,0,0,0,6.3-2.56,47,47,0,0,0,4.52-6.66c3.05-5.43.37-8,.34-8a1.69,1.69,0,0,1,2.27-2.5c.19.18,4.68,4.4.34,12.14A51,51,0,0,1,234,268.2,10.39,10.39,0,0,1,225.92,272.05Z"/><path class="a23a66d4-4cb6-4904-8c40-5dfb0ab57310" d="M230.83,279a1.69,1.69,0,0,1-1.65-1.38l-1.44-7.67a1.69,1.69,0,0,1,3.32-.62l1.43,7.67a1.68,1.68,0,0,1-1.35,2A1.55,1.55,0,0,1,230.83,279Z"/><path class="a23a66d4-4cb6-4904-8c40-5dfb0ab57310" d="M202.88,266a1.37,1.37,0,0,1-.81-.26,1.41,1.41,0,0,1-.33-2l6.09-8.52-1.16-.6a2.38,2.38,0,0,1-.8-3.58c6.51-8.41,6.69-8.51,7-8.69a1.4,1.4,0,0,1,1.61,2.28c-.35.38-2.12,2.6-6.09,7.72l1.14.59a2.34,2.34,0,0,1,1.23,1.56,2.37,2.37,0,0,1-.38,1.95L204,265.36A1.39,1.39,0,0,1,202.88,266Zm11.39-21.16Zm0,0Z"/><path class="a23a66d4-4cb6-4904-8c40-5dfb0ab57310" d="M275.57,294.94a1.68,1.68,0,0,1-1.51-.95c-12.23-24.82-31-26.85-31.16-26.87a1.69,1.69,0,0,1,.3-3.36c.84.07,20.77,2.12,33.89,28.74a1.7,1.7,0,0,1-1.52,2.44Z"/><path class="a23a66d4-4cb6-4904-8c40-5dfb0ab57310" d="M265.82,311.54a1.7,1.7,0,0,1-1.38-2.67l3.72-5.2c-5.49-15.1-19.7-26.2-30.52-28.27a1.69,1.69,0,0,1,.64-3.32c11.95,2.3,27.7,14.64,33.36,31.32a1.68,1.68,0,0,1-.23,1.52l-4.22,5.91A1.69,1.69,0,0,1,265.82,311.54Z"/><path class="a23a66d4-4cb6-4904-8c40-5dfb0ab57310" d="M193.82,261.22a1.9,1.9,0,0,1-.4-.05c-3.31-.8-9.45,0-9.51,0a1.69,1.69,0,1,1-.46-3.34c.28,0,6.83-.93,10.77,0a1.69,1.69,0,0,1-.4,3.33Z"/><path class="a23a66d4-4cb6-4904-8c40-5dfb0ab57310" d="M176.16,273.32a1.71,1.71,0,0,1-1.24-.54,1.68,1.68,0,0,1,.09-2.39c.29-.27,7.41-6.7,20-4.12a1.69,1.69,0,1,1-.68,3.31c-10.9-2.24-17,3.23-17,3.29A1.66,1.66,0,0,1,176.16,273.32Z"/><path class="a23a66d4-4cb6-4904-8c40-5dfb0ab57310" d="M260.76,316.29a33.52,33.52,0,0,1,11.65,9.58,25.88,25.88,0,0,0-3-2.19,33.57,33.57,0,0,0-9.82-4.2,1.7,1.7,0,1,1,1.12-3.19Z"/><path class="a23a66d4-4cb6-4904-8c40-5dfb0ab57310" d="M282.64,304a5.2,5.2,0,0,1-1.17-.14l-4-1a1.69,1.69,0,1,1,.79-3.28l4,1a1.52,1.52,0,0,0,1.59-.57,56.63,56.63,0,0,0,9.55-19.92,1.55,1.55,0,0,0-.57-1.58,35.37,35.37,0,0,0-10.27-5.07,1.7,1.7,0,0,1-1.17-2.09,1.68,1.68,0,0,1,2.08-1.16,38.12,38.12,0,0,1,11.4,5.63,4.92,4.92,0,0,1,1.81,5.05A60,60,0,0,1,286.58,302,4.88,4.88,0,0,1,282.64,304Z"/><path class="a23a66d4-4cb6-4904-8c40-5dfb0ab57310" d="M299,272.66a1.7,1.7,0,0,1-1.37-.7c-2.41-3.33-1.72-8.91,1.84-14.91,4.32-7.27,12.82-14.62,21.29-13.56a1.69,1.69,0,1,1-.42,3.35c-6.65-.83-14.07,5.37-18,11.93-2.77,4.67-3.56,9.07-2,11.21a1.68,1.68,0,0,1-.38,2.36A1.71,1.71,0,0,1,299,272.66Z"/><g class="b34366f7-887a-4f5d-8d95-1dfea8473856"><path class="a23a66d4-4cb6-4904-8c40-5dfb0ab57310" d="M333.16,302.86s-3,6.19-7.38,3.1c-2.55-1.78-2.45-5.81-3.32-10.22,14.45-3.17,5.35-20.13,5.35-20.13-8.49-23.11-26.89-32.61-38.23-36.39a22.27,22.27,0,0,0-15.19.3c-22,8.64-43.37-2.36-43.37-2.36L266.66,227a10.93,10.93,0,0,1,4.13,0c1.17.21,6.75-1.17,12.63-2.57h0c21.11,2.86,46.69,23.21,54.33,49.84C337.76,274.3,347.51,291.75,333.16,302.86Z"/></g><g class="b34366f7-887a-4f5d-8d95-1dfea8473856"><path class="a23a66d4-4cb6-4904-8c40-5dfb0ab57310" d="M280.91,258.06s-8.77-5.06-8.68,6.48-4.81,14.83-4.81,14.83L264.34,276s2.83,17.78-4.36,10.13c-.53-.57-3.72-3.64-3.72-3.64S230.12,302.66,227,323.2s-3.66,45.86-3.66,45.86-12,29.27-28.64,19.42c-.05.85-.07,1.74-.05,2.67.14,13.79,9.14,12.24,21.94,7.74s19.7-27.72,19.7-27.72.28-9.7,1.83-21.24,13.5-23.07,13.5-23.07c10.55,4.89,18,4.46,22.24,3.32a10.69,10.69,0,0,0,6-4.26c2.19-3.14,4.23-6.44,6.11-9.79a.09.09,0,0,0,0-.05c3.45-6.85,6.31-12.62,7.09-14.25,0-.06.05-.1.07-.15l.08-.16,0-.11a.79.79,0,0,0,0-.09l.06-.12a208.26,208.26,0,0,0,10-28.32l3.41,2.7,2.58-5.51S298.63,256.09,280.91,258.06Zm-2,42.29-2.43-9.46,7.54-18.05,7.55,1.4Z"/></g><g class="b34366f7-887a-4f5d-8d95-1dfea8473856"><path class="a23a66d4-4cb6-4904-8c40-5dfb0ab57310" d="M206.81,308.08l-3.07,4.77-2.45,4.58-2.54,8.83c.3-1.54.65-3.06,1-4.55,0,0-5-.35-8.37-2.39l-8.23,8.16s-8.12,8.37-6,27a8.25,8.25,0,0,1-2.17,6.6c-4,4.35-11.64,12.58-16.33,17.77-6.61,7.32-19.84,7.88-21.38-1.55a16.55,16.55,0,0,1-.19-3.4c10.79,9,26.35-5.22,24.85-30.28s14.63-41.29,14.63-41.29C194.85,317.68,206.41,308.4,206.81,308.08Z"/></g><g class="b34366f7-887a-4f5d-8d95-1dfea8473856"><path class="a23a66d4-4cb6-4904-8c40-5dfb0ab57310" d="M230,247.64s2.23,13.09-24,19.66l-.55,6.67s1.41,7.78,17.3,8.35,19.49-5.63,19.49-5.63.78-11.59,4.07-10.39l-2.73-2.74s1.26-12.87-8.87-14.63"/></g><g class="b34366f7-887a-4f5d-8d95-1dfea8473856"><path class="a23a66d4-4cb6-4904-8c40-5dfb0ab57310" d="M192.38,243.56l-2.46,6.61-3.71,6.52-5.11,2.7c-18.4-1.12-34.75-6.1-45.93-20.79-8.55-8.66-20.69-17.88-16.51-24.51,0,0-2.13-13.07,6.74-14.45-5.1,7.14.76,16.49.76,16.49l-3.38-1.94c.2.32,6.51,10.58,14.45,16.31s11.38,2.16,11.38,2.16C166,247.48,192.38,243.56,192.38,243.56Z"/></g><path class="a35e408e-e7b7-4454-91c0-483adf9dbc76" d="M138.83,174.41l4,6.94,8,.6a2.76,2.76,0,0,1,1.84,4.59l-5.34,6,1.9,7.8a2.76,2.76,0,0,1-3.8,3.17l-7.34-3.23-6.83,4.21a2.76,2.76,0,0,1-4.19-2.62l.81-8-6.12-5.19a2.75,2.75,0,0,1,1.2-4.79l7.84-1.7,3-7.43A2.77,2.77,0,0,1,138.83,174.41Z"/><g class="f5e3a747-228e-4ff4-a7da-c9fb60e3dde8"><path class="eada591b-3447-4a3f-8583-571e581cf1a8" d="M152.71,186.54l-5.34,6,1.89,7.8a2.76,2.76,0,0,1-3.78,3.18l-7.35-3.24-6.83,4.21a2.76,2.76,0,0,1-4.2-2.13,2.89,2.89,0,0,0,1.2-.4l6.83-4.21,7.34,3.23a2.76,2.76,0,0,0,3.79-3.18L144.37,190l5.34-6a2.73,2.73,0,0,0,.7-2.09l.46,0A2.76,2.76,0,0,1,152.71,186.54Z"/></g><g class="fe12d7ae-170f-4536-93c9-9a0d6ce3dc3f"><path class="b8b5d773-d4ee-4cdc-a555-86c734bce32c" d="M139.35,175.33A2.71,2.71,0,0,0,137.2,177l-3,7.43-7.84,1.69a2.76,2.76,0,0,0-1.2,4.8l6.12,5.19-.81,8a2.46,2.46,0,0,0,0,.72,2.76,2.76,0,0,1-3.33-3l.81-8-6.12-5.19a2.76,2.76,0,0,1,1.2-4.8l7.85-1.7,3-7.42a2.76,2.76,0,0,1,4.93-.34Z"/></g><path class="a23a66d4-4cb6-4904-8c40-5dfb0ab57310" d="M129.85,206.58a4.47,4.47,0,0,1-4.42-4.9l.72-7.1L120.71,190a4.44,4.44,0,0,1,1.93-7.73l7-1.51,2.71-6.61a4.45,4.45,0,0,1,7.95-.55h0l3.6,6.17,7.11.54a4.44,4.44,0,0,1,3,7.39L149.22,193l1.69,6.93a4.45,4.45,0,0,1-6.12,5.12l-6.53-2.88-6.07,3.75A4.49,4.49,0,0,1,129.85,206.58Zm6.59-31.85h-.07a1.06,1.06,0,0,0-.92.67l-3,7.42a1.72,1.72,0,0,1-1.21,1l-7.84,1.7a1,1,0,0,0-.81.78,1.06,1.06,0,0,0,.34,1.08l6.12,5.19a1.65,1.65,0,0,1,.59,1.45l-.81,8a1.08,1.08,0,0,0,1.63,1l6.82-4.22a1.71,1.71,0,0,1,1.57-.11l7.34,3.24a1,1,0,0,0,1.12-.16,1,1,0,0,0,.36-1.07l-1.9-7.8a1.68,1.68,0,0,1,.38-1.52l5.35-6a1.07,1.07,0,0,0-.72-1.78l-8-.6a1.65,1.65,0,0,1-1.33-.83l-4-6.94A1,1,0,0,0,136.44,174.73Z"/><path class="a35e408e-e7b7-4454-91c0-483adf9dbc76" d="M139.91,69.13l4,6.93,8,.61a2.76,2.76,0,0,1,1.85,4.59l-5.35,6,1.9,7.8a2.75,2.75,0,0,1-3.79,3.17L139.22,95l-6.83,4.21a2.76,2.76,0,0,1-4.19-2.63l.8-8-6.11-5.19a2.76,2.76,0,0,1,1.2-4.8l7.84-1.7,3-7.42A2.76,2.76,0,0,1,139.91,69.13Z"/><g class="f5e3a747-228e-4ff4-a7da-c9fb60e3dde8"><path class="eada591b-3447-4a3f-8583-571e581cf1a8" d="M153.8,81.26l-5.35,6,1.9,7.79a2.76,2.76,0,0,1-3.79,3.18L139.22,95l-6.83,4.21a2.76,2.76,0,0,1-4.2-2.13,2.82,2.82,0,0,0,1.2-.41l6.82-4.2,7.35,3.23a2.76,2.76,0,0,0,3.79-3.18l-1.9-7.79,5.35-6a2.74,2.74,0,0,0,.69-2.1l.46,0A2.76,2.76,0,0,1,153.8,81.26Z"/></g><g class="fe12d7ae-170f-4536-93c9-9a0d6ce3dc3f"><path class="b8b5d773-d4ee-4cdc-a555-86c734bce32c" d="M140.44,70a2.71,2.71,0,0,0-2.16,1.68l-3.05,7.42-7.84,1.7a2.76,2.76,0,0,0-1.2,4.8l6.12,5.19-.81,8a2.47,2.47,0,0,0,0,.72,2.77,2.77,0,0,1-3.34-3l.81-8-6.11-5.19a2.76,2.76,0,0,1,1.2-4.8l7.84-1.7,3-7.42a2.77,2.77,0,0,1,4.94-.34Z"/></g><path class="a23a66d4-4cb6-4904-8c40-5dfb0ab57310" d="M130.94,101.29a4.45,4.45,0,0,1-4.42-4.9l.72-7.1-5.45-4.61a4.45,4.45,0,0,1,1.94-7.74l7-1.51,2.71-6.6a4.45,4.45,0,0,1,8-.55L145,74.45l7.12.53a4.45,4.45,0,0,1,3,7.4L150.3,87.7,152,94.64a4.44,4.44,0,0,1-6.11,5.12l-6.53-2.88-6.08,3.75A4.45,4.45,0,0,1,130.94,101.29Zm6.59-31.84h-.08a1.06,1.06,0,0,0-.91.66l-3,7.43a1.67,1.67,0,0,1-1.2,1l-7.85,1.7a1.05,1.05,0,0,0-.81.79A1,1,0,0,0,124,82.1l6.12,5.19a1.69,1.69,0,0,1,.58,1.46l-.8,8a1.05,1.05,0,0,0,.49,1,1,1,0,0,0,1.13,0l6.83-4.21a1.71,1.71,0,0,1,1.57-.11l7.34,3.24a1,1,0,0,0,1.12-.16,1.06,1.06,0,0,0,.35-1.08l-1.9-7.79a1.71,1.71,0,0,1,.38-1.53l5.35-6a1.07,1.07,0,0,0-.72-1.78l-8-.6a1.69,1.69,0,0,1-1.33-.84l-4-6.93h0A1,1,0,0,0,137.53,69.45Z"/><path class="a35e408e-e7b7-4454-91c0-483adf9dbc76" d="M77.73,135.49l4,6.93,8,.61a2.75,2.75,0,0,1,1.85,4.58l-5.35,6,1.9,7.79a2.76,2.76,0,0,1-3.79,3.18L77,161.33l-6.83,4.22A2.76,2.76,0,0,1,66,162.92l.8-8-6.11-5.19a2.76,2.76,0,0,1,1.2-4.8l7.84-1.7,3-7.42A2.75,2.75,0,0,1,77.73,135.49Z"/><g class="f5e3a747-228e-4ff4-a7da-c9fb60e3dde8"><path class="eada591b-3447-4a3f-8583-571e581cf1a8" d="M91.62,147.62l-5.35,6,1.9,7.79a2.76,2.76,0,0,1-3.79,3.18L77,161.34l-6.83,4.2a2.75,2.75,0,0,1-4.2-2.12,2.82,2.82,0,0,0,1.2-.41L74,158.8,81.38,162a2.76,2.76,0,0,0,3.79-3.18l-1.9-7.79,5.35-6a2.72,2.72,0,0,0,.69-2.09l.46,0A2.77,2.77,0,0,1,91.62,147.62Z"/></g><g class="fe12d7ae-170f-4536-93c9-9a0d6ce3dc3f"><path class="b8b5d773-d4ee-4cdc-a555-86c734bce32c" d="M78.26,136.4a2.71,2.71,0,0,0-2.16,1.68l-3,7.42-7.84,1.7A2.76,2.76,0,0,0,64,152l6.12,5.19-.81,8a2.87,2.87,0,0,0,0,.72,2.76,2.76,0,0,1-3.33-3l.81-8-6.11-5.19a2.76,2.76,0,0,1,1.2-4.8l7.84-1.7,3-7.42a2.76,2.76,0,0,1,4.94-.34Z"/></g><path class="a23a66d4-4cb6-4904-8c40-5dfb0ab57310" d="M68.76,167.65A4.48,4.48,0,0,1,66.4,167a4.42,4.42,0,0,1-2.06-4.22l.72-7.1L59.61,151a4.45,4.45,0,0,1,1.94-7.74l7-1.51,2.71-6.6a4.45,4.45,0,0,1,8-.55l3.59,6.17,7.12.53a4.45,4.45,0,0,1,3,7.4l-4.76,5.32L89.81,161a4.44,4.44,0,0,1-6.11,5.12l-6.53-2.87L71.09,167A4.37,4.37,0,0,1,68.76,167.65Zm6.59-31.84h-.08a1,1,0,0,0-.91.66l-3,7.42a1.68,1.68,0,0,1-1.2,1l-7.85,1.7a1.05,1.05,0,0,0-.81.79,1,1,0,0,0,.35,1.07l6.12,5.19a1.69,1.69,0,0,1,.58,1.46l-.8,8a1.05,1.05,0,0,0,.49,1,1.07,1.07,0,0,0,1.13,0l6.83-4.21a1.65,1.65,0,0,1,1.57-.11L85.06,163a1.06,1.06,0,0,0,1.47-1.23L84.63,154a1.71,1.71,0,0,1,.38-1.53l5.35-6a1.07,1.07,0,0,0-.72-1.78l-8-.6a1.72,1.72,0,0,1-1.33-.84l-4-6.93h0A1,1,0,0,0,75.35,135.81Z"/><path class="a35e408e-e7b7-4454-91c0-483adf9dbc76" d="M91.75,264.79l4,6.93,8,.61a2.75,2.75,0,0,1,1.84,4.58l-5.34,6,1.9,7.79a2.76,2.76,0,0,1-3.8,3.18l-7.34-3.24-6.83,4.22A2.76,2.76,0,0,1,80,292.22l.81-8-6.12-5.19a2.76,2.76,0,0,1,1.2-4.8l7.85-1.7,3-7.42A2.76,2.76,0,0,1,91.75,264.79Z"/><g class="f5e3a747-228e-4ff4-a7da-c9fb60e3dde8"><path class="eada591b-3447-4a3f-8583-571e581cf1a8" d="M105.63,276.92l-5.34,6,1.89,7.79a2.75,2.75,0,0,1-3.78,3.18l-7.35-3.23-6.83,4.21a2.77,2.77,0,0,1-4.2-2.13,2.77,2.77,0,0,0,1.2-.41l6.83-4.21,7.34,3.24a2.76,2.76,0,0,0,3.79-3.18l-1.89-7.79,5.34-6a2.71,2.71,0,0,0,.7-2.09l.46,0A2.75,2.75,0,0,1,105.63,276.92Z"/></g><g class="fe12d7ae-170f-4536-93c9-9a0d6ce3dc3f"><path class="b8b5d773-d4ee-4cdc-a555-86c734bce32c" d="M92.27,265.7a2.7,2.7,0,0,0-2.15,1.68l-3.05,7.42-7.84,1.7a2.76,2.76,0,0,0-1.2,4.8l6.12,5.19-.81,8a2.46,2.46,0,0,0,0,.72,2.76,2.76,0,0,1-3.33-3l.81-8-6.12-5.19a2.76,2.76,0,0,1,1.2-4.8l7.85-1.7,3-7.42a2.76,2.76,0,0,1,4.94-.34Z"/></g><path class="a23a66d4-4cb6-4904-8c40-5dfb0ab57310" d="M82.78,297a4.46,4.46,0,0,1-4.43-4.9l.72-7.1-5.44-4.61a4.45,4.45,0,0,1,1.94-7.74l7-1.51,2.71-6.6a4.45,4.45,0,0,1,8-.55h0l3.59,6.17,7.11.53a4.45,4.45,0,0,1,3,7.4l-4.75,5.32,1.69,6.93a4.45,4.45,0,0,1-6.12,5.12l-6.53-2.87-6.07,3.74A4.39,4.39,0,0,1,82.78,297Zm6.59-31.84h-.08a1,1,0,0,0-.92.66l-3,7.42a1.65,1.65,0,0,1-1.21,1l-7.84,1.7a1.07,1.07,0,0,0-.47,1.86L81.93,283a1.67,1.67,0,0,1,.59,1.46l-.81,8a1.07,1.07,0,0,0,1.63,1l6.83-4.21a1.69,1.69,0,0,1,1.56-.11l7.35,3.24a1.08,1.08,0,0,0,1.47-1.24l-1.9-7.79a1.71,1.71,0,0,1,.38-1.53l5.35-6a1,1,0,0,0,.19-1.11,1,1,0,0,0-.91-.67l-8-.6a1.7,1.7,0,0,1-1.33-.84l-4-6.93A1,1,0,0,0,89.37,265.11Z"/><path class="a35e408e-e7b7-4454-91c0-483adf9dbc76" d="M351.37,69.13l4,6.94,8,.6a2.76,2.76,0,0,1,1.85,4.59l-5.35,6,1.9,7.8A2.75,2.75,0,0,1,358,98.21L350.68,95l-6.83,4.21a2.75,2.75,0,0,1-4.19-2.62l.81-8-6.12-5.19a2.76,2.76,0,0,1,1.2-4.8l7.84-1.69,3.05-7.43A2.76,2.76,0,0,1,351.37,69.13Z"/><g class="f5e3a747-228e-4ff4-a7da-c9fb60e3dde8"><path class="eada591b-3447-4a3f-8583-571e581cf1a8" d="M365.26,81.26l-5.35,6,1.9,7.8A2.76,2.76,0,0,1,358,98.22L350.68,95l-6.83,4.21a2.76,2.76,0,0,1-4.2-2.13,2.94,2.94,0,0,0,1.2-.4l6.82-4.21L355,95.68a2.76,2.76,0,0,0,3.79-3.18l-1.9-7.79,5.35-6a2.74,2.74,0,0,0,.69-2.1l.46,0A2.76,2.76,0,0,1,365.26,81.26Z"/></g><g class="fe12d7ae-170f-4536-93c9-9a0d6ce3dc3f"><path class="b8b5d773-d4ee-4cdc-a555-86c734bce32c" d="M351.9,70a2.7,2.7,0,0,0-2.15,1.68l-3.06,7.42-7.83,1.7a2.76,2.76,0,0,0-1.21,4.8l6.12,5.19-.81,8a2.86,2.86,0,0,0,0,.72,2.76,2.76,0,0,1-3.33-3l.81-8-6.12-5.19a2.76,2.76,0,0,1,1.2-4.8l7.84-1.7,3.05-7.42a2.76,2.76,0,0,1,4.93-.34Z"/></g><path class="a23a66d4-4cb6-4904-8c40-5dfb0ab57310" d="M342.4,101.3A4.47,4.47,0,0,1,338,96.4l.72-7.1-5.44-4.62a4.45,4.45,0,0,1,1.93-7.74l7-1.51,2.71-6.6a4.44,4.44,0,0,1,7.95-.55h0l3.59,6.17,7.12.54a4.44,4.44,0,0,1,3,7.39l-4.76,5.32,1.69,6.94a4.44,4.44,0,0,1-6.11,5.12l-6.53-2.88-6.07,3.75A4.49,4.49,0,0,1,342.4,101.3ZM349,69.45h-.07a1.07,1.07,0,0,0-.92.66L345,77.54a1.7,1.7,0,0,1-1.2,1l-7.84,1.69a1.07,1.07,0,0,0-.82.79,1,1,0,0,0,.35,1.07l6.12,5.2a1.71,1.71,0,0,1,.59,1.45l-.81,8a1,1,0,0,0,.49,1,1,1,0,0,0,1.13,0l6.83-4.21a1.71,1.71,0,0,1,1.57-.11l7.34,3.24a1.07,1.07,0,0,0,1.47-1.23l-1.9-7.8a1.66,1.66,0,0,1,.39-1.52l5.34-6a1.05,1.05,0,0,0,.2-1.11,1.06,1.06,0,0,0-.92-.67l-8-.6a1.68,1.68,0,0,1-1.33-.83l-4-6.94A1,1,0,0,0,349,69.45Z"/><path class="a35e408e-e7b7-4454-91c0-483adf9dbc76" d="M376.62,178.85l4,6.93,8,.61a2.75,2.75,0,0,1,1.85,4.58l-5.35,6,1.9,7.79a2.76,2.76,0,0,1-3.79,3.18l-7.35-3.24-6.82,4.22a2.76,2.76,0,0,1-4.2-2.63l.81-8-6.12-5.19a2.76,2.76,0,0,1,1.2-4.8l7.85-1.7,3-7.42A2.76,2.76,0,0,1,376.62,178.85Z"/><g class="f5e3a747-228e-4ff4-a7da-c9fb60e3dde8"><path class="eada591b-3447-4a3f-8583-571e581cf1a8" d="M390.51,191l-5.35,6,1.9,7.79a2.76,2.76,0,0,1-3.79,3.18l-7.34-3.23-6.84,4.21a2.76,2.76,0,0,1-4.19-2.13,2.73,2.73,0,0,0,1.19-.41l6.83-4.21,7.34,3.24a2.76,2.76,0,0,0,3.8-3.18l-1.9-7.79,5.35-6a2.71,2.71,0,0,0,.69-2.09l.46,0A2.77,2.77,0,0,1,390.51,191Z"/></g><g class="fe12d7ae-170f-4536-93c9-9a0d6ce3dc3f"><path class="b8b5d773-d4ee-4cdc-a555-86c734bce32c" d="M377.15,179.76a2.71,2.71,0,0,0-2.16,1.68l-3.05,7.42-7.84,1.7a2.76,2.76,0,0,0-1.2,4.8l6.12,5.19-.81,8a2.46,2.46,0,0,0,0,.72,2.76,2.76,0,0,1-3.33-3l.81-8-6.12-5.19a2.76,2.76,0,0,1,1.2-4.8l7.85-1.7,3-7.42a2.76,2.76,0,0,1,4.94-.34Z"/></g><path class="a23a66d4-4cb6-4904-8c40-5dfb0ab57310" d="M367.65,211a4.46,4.46,0,0,1-4.43-4.9l.72-7.1-5.44-4.61a4.45,4.45,0,0,1,1.94-7.74l7-1.51,2.71-6.6a4.45,4.45,0,0,1,8-.55l3.59,6.17,7.11.53a4.46,4.46,0,0,1,3,7.4L387,197.42l1.69,6.93a4.45,4.45,0,0,1-6.11,5.12l-6.53-2.87L370,210.34A4.39,4.39,0,0,1,367.65,211Zm6.59-31.84h-.08a1,1,0,0,0-.91.66l-3.05,7.42a1.68,1.68,0,0,1-1.21,1l-7.84,1.7a1.05,1.05,0,0,0-.81.79,1,1,0,0,0,.35,1.07L366.8,197a1.67,1.67,0,0,1,.59,1.46l-.81,8a1.07,1.07,0,0,0,1.63,1l6.83-4.21a1.64,1.64,0,0,1,1.56-.11l7.35,3.23a1.06,1.06,0,0,0,1.47-1.23l-1.9-7.79a1.71,1.71,0,0,1,.38-1.53l5.35-6a1.07,1.07,0,0,0-.72-1.78l-8-.6a1.72,1.72,0,0,1-1.33-.84l-4-6.93h0A1,1,0,0,0,374.24,179.17Z"/><path class="a35e408e-e7b7-4454-91c0-483adf9dbc76" d="M351.37,350.74l4,6.93,8,.6a2.76,2.76,0,0,1,1.85,4.59l-5.35,6,1.9,7.79a2.76,2.76,0,0,1-3.79,3.18l-7.34-3.24-6.83,4.22a2.76,2.76,0,0,1-4.19-2.63l.81-8L334.35,365a2.76,2.76,0,0,1,1.2-4.8l7.84-1.7,3.05-7.42A2.75,2.75,0,0,1,351.37,350.74Z"/><g class="f5e3a747-228e-4ff4-a7da-c9fb60e3dde8"><path class="eada591b-3447-4a3f-8583-571e581cf1a8" d="M365.26,362.86l-5.35,6,1.9,7.79a2.76,2.76,0,0,1-3.79,3.18l-7.34-3.24-6.83,4.21a2.76,2.76,0,0,1-4.2-2.12,2.82,2.82,0,0,0,1.2-.41l6.82-4.21,7.35,3.24a2.76,2.76,0,0,0,3.79-3.18l-1.9-7.8,5.35-6a2.72,2.72,0,0,0,.69-2.09l.46,0A2.76,2.76,0,0,1,365.26,362.86Z"/></g><g class="fe12d7ae-170f-4536-93c9-9a0d6ce3dc3f"><path class="b8b5d773-d4ee-4cdc-a555-86c734bce32c" d="M351.9,351.65a2.69,2.69,0,0,0-2.15,1.68l-3.06,7.42-7.83,1.7a2.76,2.76,0,0,0-1.21,4.8l6.12,5.19-.81,8a2.86,2.86,0,0,0,0,.72,2.75,2.75,0,0,1-3.33-3l.81-8L334.35,365a2.76,2.76,0,0,1,1.2-4.8l7.84-1.7,3.05-7.43a2.75,2.75,0,0,1,4.93-.33Z"/></g><path class="a23a66d4-4cb6-4904-8c40-5dfb0ab57310" d="M342.4,382.9a4.48,4.48,0,0,1-2.36-.68A4.44,4.44,0,0,1,338,378l.72-7.1-5.44-4.62a4.44,4.44,0,0,1,1.93-7.73l7-1.51,2.71-6.6a4.44,4.44,0,0,1,7.95-.55h0l3.59,6.16,7.12.54a4.45,4.45,0,0,1,3,7.4l-4.76,5.32,1.69,6.93a4.44,4.44,0,0,1-6.11,5.12l-6.53-2.88-6.07,3.75A4.4,4.4,0,0,1,342.4,382.9ZM349,351.06h-.07a1,1,0,0,0-.92.66L345,359.14a1.68,1.68,0,0,1-1.2,1l-7.84,1.7a1.06,1.06,0,0,0-.47,1.86l6.12,5.19a1.73,1.73,0,0,1,.59,1.46l-.81,8a1.05,1.05,0,0,0,.49,1,1.07,1.07,0,0,0,1.13,0l6.83-4.22a1.68,1.68,0,0,1,1.57-.1l7.34,3.23a1.07,1.07,0,0,0,1.47-1.23l-1.9-7.8a1.66,1.66,0,0,1,.39-1.52l5.34-6a1.06,1.06,0,0,0-.72-1.78l-8-.61a1.68,1.68,0,0,1-1.33-.83l-4-6.93A1,1,0,0,0,349,351.06Z"/></g></svg>