<svg id="ba6a698d-87eb-4151-88cf-895a617cca82" data-name="Layer 1" xmlns="http://www.w3.org/2000/svg" xmlns:xlink="http://www.w3.org/1999/xlink" viewBox="0 0 64 64"><defs><style>.b08ccb1b-d04d-4fd0-8971-37b63934e6a9{fill:url(#aa3e4e7a-4912-4c0b-ba1f-85c2c5fe4fbc);}.ebdd74f7-ffb7-4092-ae75-ed882937109f{fill:url(#a122a285-7c4b-4537-91a4-582cda868ef7);}</style><linearGradient id="aa3e4e7a-4912-4c0b-ba1f-85c2c5fe4fbc" x1="29.93" y1="8.69" x2="29.93" y2="53.75" gradientUnits="userSpaceOnUse"><stop offset="0" stop-color="#bb428a"/><stop offset="1" stop-color="#2e265f"/></linearGradient><linearGradient id="a122a285-7c4b-4537-91a4-582cda868ef7" x1="32.61" y1="4.67" x2="33.16" y2="58.59" xlink:href="#aa3e4e7a-4912-4c0b-ba1f-85c2c5fe4fbc"/></defs><path class="b08ccb1b-d04d-4fd0-8971-37b63934e6a9" d="M32.85,55.36c-.33,0-.65,0-1,0a21.93,21.93,0,0,1-5.76-.77l.47-.2A66,66,0,0,0,33.23,51l.46,1.75c.1.36.35.86.08,1.12l-.92,1C32.65,55,32.63,55.29,32.85,55.36Zm14-14.48a79.92,79.92,0,0,1-11.29,8.68L36,52a.3.3,0,0,0,.3.26h.15a.16.16,0,0,1,.16.16v.17a.61.61,0,0,1-.15.41L34.67,55.2a21.85,21.85,0,0,0,19-21.66v-.1A64.07,64.07,0,0,1,46.82,40.88ZM57.06,21.12c-1.34,4-4.3,8.47-8.5,13-1.26,1.4-2.64,2.81-4.13,4.19a75.72,75.72,0,0,1-9.62,7.55l-.12-.61a.31.31,0,0,1,.18-.34l1-.45a.29.29,0,0,0,.18-.27l.1-2.57a.56.56,0,0,1,.15-.34L37,40.5a.27.27,0,0,0,.07-.13l2-7a1.06,1.06,0,0,0-.32-1.1l-5.09-4.5a.31.31,0,0,1,0-.46l.26-.24a.34.34,0,0,1,.26-.08c.82.12,4.93.47,5.08-3.77.13-3.44-2.53-4.19-4-4.35a.83.83,0,0,0-.91.83v.78a.31.31,0,0,1-.28.31,5,5,0,0,0-1.63.53A2.29,2.29,0,0,0,31.11,23a3.48,3.48,0,0,0,.33,1.85.34.34,0,0,1-.14.41l-.25.12a.33.33,0,0,1-.41,0c-.81-.89-4.46-5-4.87-7.56A10.7,10.7,0,0,0,25,15.11a.31.31,0,0,0-.59.12l0,1.53a.6.6,0,0,1-.62.6l-.74-.15a.2.2,0,0,0-.2.2.6.6,0,0,0,.29.4,1.1,1.1,0,0,0,.42.17l.5.11s.26.08.31.19l4.09,8.91a.35.35,0,0,1,0,.13v0a.32.32,0,0,1-.08.21L28,28a1.29,1.29,0,0,0-.32.84L28.07,39c0,.86.31,1,1.07,1.36a.7.7,0,0,1,.3.29l.25.44a3.31,3.31,0,0,1,.39,1.09l.42,2.32a.76.76,0,0,0,.53.59l.24.07a.89.89,0,0,1,.6.62l.44,1.68a65,65,0,0,1-7.16,3.77c-1.34.59-2.6,1.08-3.78,1.49l-.06,0a30.07,30.07,0,0,1-10.07,2.1,10.05,10.05,0,0,1-7-2.23C2.6,51,1,48,2.8,42.62A36.59,36.59,0,0,1,10.17,31,21.82,21.82,0,0,1,36,12.09c.76-.33,1.51-.64,2.25-.91,8-3,14.26-2.94,17.49.18C57.32,12.89,58.84,15.83,57.06,21.12Zm-39.37,29a21.84,21.84,0,0,1-7.44-13.45,28,28,0,0,0-4.11,7c-.68,2-1.13,4.69.5,6.19C8.12,51.27,11.78,51.89,17.69,50.16Zm35.6-36.28c-1.89-1.83-6.4-1.82-12,0A22,22,0,0,1,51.67,24.32,23.56,23.56,0,0,0,53.73,20C54.39,18,54.85,15.39,53.29,13.88ZM36.52,38.53l.6-4.26A.52.52,0,0,0,37,33.8l-1.51-1.28a.4.4,0,0,0-.55,0l-.42.42a.48.48,0,0,0-.15.36c0,.87,0,4.22,1.3,5.47a.54.54,0,0,0,.44.17A.51.51,0,0,0,36.52,38.53Z"/><path class="ebdd74f7-ffb7-4092-ae75-ed882937109f" d="M26,4.61l.21,1.48a.16.16,0,0,0,.08.12l1.34.67a.16.16,0,0,1,0,.28l-1.34.65a.16.16,0,0,0-.09.12L26,9.41a.16.16,0,0,1-.28.08l-1-1.08a.18.18,0,0,0-.14,0l-1.47.24a.16.16,0,0,1-.17-.23l.71-1.32a.19.19,0,0,0,0-.15l-.69-1.32a.16.16,0,0,1,.17-.23l1.47.26a.14.14,0,0,0,.14,0l1.05-1.06A.16.16,0,0,1,26,4.61ZM6.23,19.13l1.51,1.31a.21.21,0,0,0,.2,0L9.88,20a.21.21,0,0,1,.25.28l-.78,1.85a.2.2,0,0,0,0,.2L10.44,24a.21.21,0,0,1-.2.32l-2-.17a.27.27,0,0,0-.19.08L6.79,25.79a.21.21,0,0,1-.37-.09L6,23.75a.19.19,0,0,0-.12-.15L4,22.86a.21.21,0,0,1,0-.38l1.71-1a.25.25,0,0,0,.11-.17l.12-2A.21.21,0,0,1,6.23,19.13ZM17.31,8l-.42,2.41a.27.27,0,0,0,.08.23l1.76,1.71a.27.27,0,0,1-.15.45l-2.42.35a.28.28,0,0,0-.2.15l-1.08,2.2a.26.26,0,0,1-.47,0l-1.09-2.2a.25.25,0,0,0-.19-.14l-2.43-.36a.26.26,0,0,1-.15-.44l1.76-1.71a.25.25,0,0,0,.07-.23L12,8a.26.26,0,0,1,.37-.28l2.18,1.14a.25.25,0,0,0,.24,0l2.17-1.14A.26.26,0,0,1,17.31,8ZM58.48,32.61l1.05,1.06a.19.19,0,0,0,.14,0l1.47-.27a.16.16,0,0,1,.17.23L60.63,35a.12.12,0,0,0,0,.14l.7,1.32a.16.16,0,0,1-.16.23l-1.48-.24a.16.16,0,0,0-.14,0l-1,1.07a.16.16,0,0,1-.27-.08L58,36a.18.18,0,0,0-.09-.12l-1.34-.65a.15.15,0,0,1,0-.28l1.33-.67a.16.16,0,0,0,.09-.12l.2-1.48A.16.16,0,0,1,58.48,32.61ZM60,43.55l.12,2a.19.19,0,0,0,.1.17l1.72,1a.21.21,0,0,1,0,.38L60,47.87a.22.22,0,0,0-.13.15L59.42,50a.22.22,0,0,1-.38.09l-1.27-1.55a.23.23,0,0,0-.18-.08l-2,.18a.22.22,0,0,1-.2-.33l1.08-1.69a.2.2,0,0,0,0-.2l-.78-1.84a.21.21,0,0,1,.25-.29l1.94.5a.21.21,0,0,0,.19,0l1.52-1.32A.22.22,0,0,1,60,43.55ZM47.71,51.61l2.17,1.14a.25.25,0,0,0,.24,0l2.17-1.14a.26.26,0,0,1,.38.28l-.42,2.42a.29.29,0,0,0,.08.23l1.75,1.71a.26.26,0,0,1-.14.44L51.51,57a.3.3,0,0,0-.2.15l-1.08,2.19a.26.26,0,0,1-.47,0l-1.08-2.2a.27.27,0,0,0-.2-.14l-2.43-.35a.27.27,0,0,1-.14-.45l1.76-1.71a.24.24,0,0,0,.07-.23l-.41-2.42A.26.26,0,0,1,47.71,51.61Z"/></svg>