<svg id="e30246d6-a261-413d-b10c-089c3518edea" data-name="Layer 1" xmlns="http://www.w3.org/2000/svg" xmlns:xlink="http://www.w3.org/1999/xlink" viewBox="0 0 450 450"><defs><style>.e76e3fd5-34c7-47b2-a2ea-3da4e2945403{fill:url(#bb813959-29e8-4a2c-988d-03fdb937d616);filter:url(#fccdccc5-0e71-4527-8cf0-1ff949c20688);}.e11d6669-637c-4dd9-9091-f3080b060dc6{filter:url(#ad741502-7469-46cd-9437-9b78b9c8c03a);}.a75a3bb2-5fc4-4e3f-a09f-df99094040f5{fill:#ffd345;}.ace258bc-e32d-4836-8273-dd09cd69f4e1{opacity:0.6;}.fc51ca04-42e1-4f50-bc91-7670b5994a58{fill:#fff;}.a970699f-ee1f-46b7-a99a-fd3e23ed6bb3{fill:#f99d39;}.b836044c-fc70-409e-a390-45bf1b3f661f{fill:#371a45;}.afc7e597-3de8-4cb4-9f71-7e722886901d{fill:#6ebe45;}.e861d5c9-537a-4358-bfea-fcf1a94243c6{opacity:0.7;}.acf8db99-e91a-46ac-8e5d-bf9f6fa5a138{opacity:0.3;}.b81a921d-9e0f-4d10-a880-848dad99f1d1{opacity:0.35;}.b75c2c97-14ea-446d-a886-205730cc57dd{fill:#111a28;}.f6427437-c86a-4498-a652-77455648d4d6{opacity:0.5;}.bc2f0456-3b6d-4f07-88ef-57915009e4c9{fill:#48a3da;}.bee86a88-869d-4b0e-b293-99d457ebd0b6{fill:#71cbce;}.f5bb9058-fa20-43da-8bcb-079e697a65b3{fill:#ffce2a;}</style><linearGradient id="bb813959-29e8-4a2c-988d-03fdb937d616" x1="179.68" y1="61.32" x2="179.68" y2="407.82" gradientTransform="translate(45.79)" gradientUnits="userSpaceOnUse"><stop offset="0" stop-color="#bb428a"/><stop offset="1" stop-color="#2e265f"/></linearGradient><filter id="fccdccc5-0e71-4527-8cf0-1ff949c20688" x="0.04" y="5.78" width="455.04" height="463.2" filterUnits="userSpaceOnUse"><feOffset dx="2" dy="2" input="SourceAlpha"/><feGaussianBlur stdDeviation="20" result="a39c3d6b-7e4b-405e-93d7-cc951deae3db"/><feFlood/><feComposite operator="in" in2="a39c3d6b-7e4b-405e-93d7-cc951deae3db"/><feComposite in="SourceGraphic"/></filter><filter id="ad741502-7469-46cd-9437-9b78b9c8c03a"><feOffset dx="2" dy="2" input="SourceAlpha"/><feGaussianBlur stdDeviation="12" result="a5259695-f111-4079-b7c0-6746fb678644"/><feFlood/><feComposite operator="in" in2="a5259695-f111-4079-b7c0-6746fb678644"/><feComposite in="SourceGraphic"/></filter></defs><path class="e76e3fd5-34c7-47b2-a2ea-3da4e2945403" d="M392.43,242.1c5.1,89-29.75,167.85-164.74,164.73C136.74,404.73,34.25,328.43,63,242.1c27.54-82.83,92.4-137.37,164.73-164.73C349,31.47,384.63,106.16,392.43,242.1Z"/><g class="e11d6669-637c-4dd9-9091-f3080b060dc6"><path class="a75a3bb2-5fc4-4e3f-a09f-df99094040f5" d="M378,313.31A170,170,0,1,1,152.8,67.7a9.76,9.76,0,0,1,14.26,11.43,168.61,168.61,0,0,0-6.9,29.38,170.32,170.32,0,0,0-1.26,35.8c0,.28,0,.56,0,.84.31,4.27.79,8.47,1.41,12.63.37,2.53.8,5,1.29,7.52.22,1.16.47,2.31.72,3.46a169.8,169.8,0,0,0,4.44,16.51A171.87,171.87,0,0,0,173.27,202c1.82,4.09,3.82,8.1,5.95,12q2.92,5.34,6.22,10.45c.15.25.31.49.47.73,1.51,2.33,3.1,4.64,4.72,6.88.62.86,1.25,1.71,1.88,2.55s1.18,1.57,1.78,2.34q3,3.86,6.22,7.52l1.22,1.38c.19.22.38.42.57.63s.54.6.81.9c1.29,1.4,2.6,2.79,3.94,4.15,2.47,2.51,5,5,7.64,7.31.61.56,1.23,1.11,1.85,1.65q4,3.52,8.27,6.79c.46.36.93.72,1.41,1.07q6.53,4.93,13.52,9.21c.82.52,1.66,1,2.5,1.51,1.51.9,3,1.76,4.56,2.6q3.27,1.8,6.63,3.45,2.52,1.24,5.07,2.41c2.46,1.11,4.95,2.17,7.46,3.16,1.7.68,3.42,1.33,5.14,1.95,1.36.49,2.72,1,4.09,1.4q3.35,1.11,6.73,2.08,7.59,2.16,15.43,3.62c2.14.4,4.28.75,6.44,1.08a170.78,170.78,0,0,0,37.32,1.31,174.91,174.91,0,0,0,17.75-2.25c3-.55,6.05-1.18,9-1.87A9.75,9.75,0,0,1,378,313.31Z"/><g class="ace258bc-e32d-4836-8273-dd09cd69f4e1"><path class="fc51ca04-42e1-4f50-bc91-7670b5994a58" d="M154.85,85.39a162,162,0,0,0-6.73,29.44,166.76,166.76,0,0,0-.87,36c0,.28.05.57.07.85.37,4.29.92,8.52,1.61,12.71.41,2.55.89,5.07,1.43,7.58.24,1.17.51,2.33.78,3.49a169.08,169.08,0,0,0,4.79,16.65A173,173,0,0,0,162.79,209c1.93,4.14,4,8.2,6.29,12.17q3.07,5.4,6.53,10.57l.5.75c1.59,2.36,3.25,4.69,5,7,.64.87,1.3,1.73,2,2.59s1.23,1.59,1.86,2.37c2.09,2.6,4.27,5.15,6.51,7.64.41.46.84.93,1.27,1.39.19.23.39.43.59.65s.56.6.85.91c1.35,1.43,2.71,2.84,4.11,4.22,2.58,2.55,5.23,5,8,7.45l1.94,1.68c2.78,2.39,5.66,4.7,8.6,6.93.48.36,1,.73,1.47,1.09q6.78,5,14.05,9.42c.86.53,1.73,1,2.6,1.55,1.56.92,3.14,1.8,4.73,2.67,2.27,1.23,4.55,2.42,6.88,3.55,1.74.86,3.49,1.68,5.26,2.48,2.54,1.15,5.12,2.25,7.72,3.27q2.64,1.05,5.33,2c1.4.5,2.81,1,4.23,1.46q3.45,1.15,7,2.17,7.83,2.28,15.94,3.84,3.31.63,6.66,1.15a180,180,0,0,0,38.48,1.79,181.92,181.92,0,0,0,18.27-2c3.12-.51,6.21-1.11,9.27-1.77a10.26,10.26,0,0,1,12.08,7.12c.43-.58.88-1.16,1.3-1.75a9.75,9.75,0,0,0-10.09-15.24c-3,.69-6,1.32-9,1.87a174.91,174.91,0,0,1-17.75,2.25,170.78,170.78,0,0,1-37.32-1.31c-2.16-.33-4.3-.68-6.44-1.08q-7.85-1.46-15.43-3.62-3.39-1-6.73-2.08c-1.37-.44-2.73-.91-4.09-1.4-1.72-.62-3.44-1.27-5.14-1.95-2.51-1-5-2.05-7.46-3.16q-2.55-1.17-5.07-2.41-3.36-1.65-6.63-3.45c-1.53-.84-3.05-1.7-4.56-2.6-.84-.49-1.68-1-2.5-1.51q-7-4.28-13.52-9.21c-.48-.35-.95-.71-1.41-1.07q-4.25-3.27-8.27-6.79c-.62-.54-1.24-1.09-1.85-1.65-2.63-2.35-5.17-4.8-7.64-7.31-1.34-1.36-2.65-2.75-3.94-4.15-.27-.3-.54-.59-.81-.9s-.38-.41-.57-.63l-1.22-1.38q-3.21-3.67-6.22-7.52c-.6-.77-1.19-1.55-1.78-2.34s-1.26-1.69-1.88-2.55c-1.62-2.24-3.21-4.55-4.72-6.88-.16-.24-.32-.48-.47-.73q-3.3-5.1-6.22-10.45c-2.13-3.92-4.13-7.93-5.95-12a171.87,171.87,0,0,1-6.46-16.77,169.8,169.8,0,0,1-4.44-16.51c-.25-1.15-.5-2.3-.72-3.46-.49-2.49-.92-5-1.29-7.52-.62-4.16-1.1-8.36-1.41-12.63,0-.28,0-.56,0-.84a170.32,170.32,0,0,1,1.26-35.8,168.61,168.61,0,0,1,6.9-29.38A9.76,9.76,0,0,0,152.8,67.7q-3.74,2.25-7.35,4.68C151.66,72.65,157,78.75,154.85,85.39Z"/></g><path class="a970699f-ee1f-46b7-a99a-fd3e23ed6bb3" d="M378,313.32A170.06,170.06,0,1,1,106.48,108.56a170.12,170.12,0,0,0,60.58,221.37,17.5,17.5,0,0,1,2.12-7.85c6.35-11.68,25-14.65,41.57-6.63s24.91,24,18.56,35.67a17.12,17.12,0,0,1-1.59,2.42A170.41,170.41,0,0,0,379.5,305,9.57,9.57,0,0,1,378,313.32Z"/><ellipse class="a970699f-ee1f-46b7-a99a-fd3e23ed6bb3" cx="124.61" cy="159.7" rx="16.34" ry="19.16" transform="translate(-39.65 41.17) rotate(-16.22)"/><ellipse class="a970699f-ee1f-46b7-a99a-fd3e23ed6bb3" cx="177.2" cy="249.37" rx="14.17" ry="22.75" transform="translate(-91.59 103.29) rotate(-26.08)"/><ellipse class="a75a3bb2-5fc4-4e3f-a09f-df99094040f5" cx="173" cy="251.12" rx="8.93" ry="19.85" transform="translate(-92.78 101.62) rotate(-26.08)"/><ellipse class="a75a3bb2-5fc4-4e3f-a09f-df99094040f5" cx="118" cy="157.57" rx="14.39" ry="11.61" transform="translate(-40.43 274.41) rotate(-89.58)"/><path class="a75a3bb2-5fc4-4e3f-a09f-df99094040f5" d="M112,241.47a18.5,18.5,0,0,0-4.38,2c-9.85,6.11-12,20.09-4.75,31.24,5.44,8.38,14.59,12.77,23,11.86Z"/><path class="b836044c-fc70-409e-a390-45bf1b3f661f" d="M112.23,242.36c-12.89,5.82-14.11,21.91-6.36,32.53a25.37,25.37,0,0,0,19.86,10.91.75.75,0,0,1,.75.77.77.77,0,0,1-.59.72,20.66,20.66,0,0,1-8.82,0C102,284.21,91.64,266.1,98,251.7a18.76,18.76,0,0,1,13.66-11.11.93.93,0,0,1,.54,1.77Z"/><path class="a75a3bb2-5fc4-4e3f-a09f-df99094040f5" d="M238.61,330.06a25.64,25.64,0,0,1,2,16.84c-2.45,10.09-11.22,16.56-23,19.15a53.56,53.56,0,0,1-25.7-1.05c-22.91-6.39-38.19-25.1-34.14-41.81a24.58,24.58,0,0,1,11.06-14.85c9.41-6,23.21-7.26,37.6-3.25Z"/><path class="b836044c-fc70-409e-a390-45bf1b3f661f" d="M109.25,164.71c2.79,6.77,9.16,12.67,16.58,12.6S138.42,171,139.28,164c1.67-10.43-6.32-23.05-17.7-22.43a13.82,13.82,0,0,0-7.66,2.85,29.55,29.55,0,0,0-2.21,2,.74.74,0,0,1-1,0,.77.77,0,0,1,0-1,16.34,16.34,0,0,1,4.48-4.56,15.45,15.45,0,0,1,6.12-2.4c17-2.34,28,18.32,21.1,32.69-5.34,11.67-19.5,14-28.63,5.19a22.23,22.23,0,0,1-6.19-11.07.93.93,0,0,1,1.76-.56Z"/><path class="b836044c-fc70-409e-a390-45bf1b3f661f" d="M126.62,134.23c-11.65-2.1-21.66,5.42-24.41,16.6-4.94,17.69,9.62,40.23,29.34,36a.75.75,0,0,1,.46,1.42,20.41,20.41,0,0,1-6,1.5c-10.76,1-20.82-6.2-25.67-15.47a33.62,33.62,0,0,1-2.86-24.73c3.52-12.94,16.45-21.86,29.62-17.09a.93.93,0,0,1-.48,1.79Z"/><path class="a970699f-ee1f-46b7-a99a-fd3e23ed6bb3" d="M123.43,278.5c-4.94.59-10.33-2.23-13.52-7.6-4.25-7.16-3-16.14,2.8-20.07a10.73,10.73,0,0,1,2.59-1.27c9.9-3.52,17,3.74,19.34,10.85C137.27,268.45,134.23,276.75,123.43,278.5Z"/><path class="a75a3bb2-5fc4-4e3f-a09f-df99094040f5" d="M122.63,277.88c-4.94.59-10.33-2.23-13.52-7.6-4.25-7.16-3-16.14,2.8-20.07a10.48,10.48,0,0,1,2.58-1.27,17.23,17.23,0,0,1,9.82,7.94C128.62,264.15,127.79,273.13,122.63,277.88Z"/><path class="b836044c-fc70-409e-a390-45bf1b3f661f" d="M132.12,256.87c-3.58-4.33-9.48-7.19-14.9-5.71-5.21,1.32-8.07,6.73-7.38,11.93,1.2,11.56,16.83,19.11,23.95,7.69a.75.75,0,0,1,1.37.61,12.33,12.33,0,0,1-2.54,4.41c-3.57,4.07-9.68,5.21-14.73,3.57a19.17,19.17,0,0,1-13-15.68c-1.61-12.64,10.54-21.26,21.78-15.08a17.44,17.44,0,0,1,7,7.25.93.93,0,0,1-1.55,1Z"/><ellipse class="a970699f-ee1f-46b7-a99a-fd3e23ed6bb3" cx="199.28" cy="334.89" rx="23.78" ry="32.71" transform="translate(-186.68 388.69) rotate(-67.18)"/><ellipse class="a75a3bb2-5fc4-4e3f-a09f-df99094040f5" cx="193.99" cy="339.19" rx="17.49" ry="27.73" transform="translate(-196.44 354.76) rotate(-62.52)"/><path class="b836044c-fc70-409e-a390-45bf1b3f661f" d="M157.5,261.24c-10.52-8.32-10.84-28.13-.11-36.44a11.37,11.37,0,0,1,5.51-2.18.75.75,0,0,1,.82.68.78.78,0,0,1-.42.76,14.38,14.38,0,0,0-6.37,7.15,32.82,32.82,0,0,0,2,28.82.94.94,0,0,1-1.39,1.21Z"/><path class="a75a3bb2-5fc4-4e3f-a09f-df99094040f5" d="M292.06,320.55A46.24,46.24,0,0,1,307,317.08c16.65-1.17,31.14,5.76,32.37,15.49s-11.28,18.56-27.93,19.72-31.15-5.77-32.37-15.49Z"/><path class="b836044c-fc70-409e-a390-45bf1b3f661f" d="M340.2,335.7c-2.64,9.62-12.83,14.45-21.62,17.09-12,3.45-27.26,2.63-36.44-6.79a13.06,13.06,0,0,1-3.83-9.11.77.77,0,0,1,.78-.73.75.75,0,0,1,.7.55c1.86,5.49,7.13,8.5,12.29,10.46a60.18,60.18,0,0,0,19.17,3.2,47.67,47.67,0,0,0,14.82-3.79c5.21-2.31,10.42-5.83,12.36-11.4a.92.92,0,0,1,1.77.52Z"/><path class="a970699f-ee1f-46b7-a99a-fd3e23ed6bb3" d="M315.2,344.37A33,33,0,0,1,301,344c-5-1.3-8.92-3.82-10.51-7.15-2.94-6.18,3.33-12.82,14-14.84,10.19-1.92,20.72,1.07,24.22,6.72a7.45,7.45,0,0,1,.45.83C332.16,335.72,325.88,342.36,315.2,344.37Z"/><ellipse class="a75a3bb2-5fc4-4e3f-a09f-df99094040f5" cx="301.24" cy="333.91" rx="8.83" ry="15.85" transform="translate(-78.77 574.38) rotate(-80.27)"/><path class="b836044c-fc70-409e-a390-45bf1b3f661f" d="M297.36,323.43a30.43,30.43,0,0,1,21.74-2.34c3.87,1.13,7.63,3,10,6.51a9.93,9.93,0,0,1-1.52,12.68c-8.53,8.83-28.51,9.21-36.8,0a9.73,9.73,0,0,1-2.05-3.89c-.08-.74-.62-2.1.44-2.3a.75.75,0,0,1,.81.55,7.7,7.7,0,0,0,2.54,4c6.14,5,16.18,5,23.47,2.83,4.57-1.37,12.25-5.54,9-11.13-3.27-4.87-11.36-6.47-16.95-6.51a32.11,32.11,0,0,0-10,1.38.93.93,0,0,1-.73-1.7Z"/><path class="b836044c-fc70-409e-a390-45bf1b3f661f" d="M193.37,264.16a10.76,10.76,0,0,1-10.44,8.44c-4.77.08-9.27-2.35-12.72-5.33-8.56-7.49-14.32-21.41-10-32.47a12,12,0,0,1,4.3-5.39c.73-.38,2.56-1.74,3-.55a.76.76,0,0,1-.31.89c-8.43,6-3.6,21,1.27,28,3.71,5.51,10.74,12.5,17.87,10.51a9.37,9.37,0,0,0,5.27-4.75.93.93,0,0,1,1.72.66Z"/><path class="b836044c-fc70-409e-a390-45bf1b3f661f" d="M240.15,386A172.93,172.93,0,0,1,70.91,246.32l-.1-.52c-.08-.45-.17-.91-.25-1.36l-.33-1.88-.06-.38c-.08-.51-.17-1-.25-1.51l-.09-.63c-.07-.43-.13-.85-.2-1.28s-.14-1-.2-1.46l-.05-.35s0-.07,0-.11c-.08-.61-.17-1.26-.25-1.9,0-.05,0-.14,0-.23l0-.15c-.06-.5-.11-.95-.16-1.39l0-.34c0-.3-.07-.6-.1-.9-.06-.51-.11-1-.16-1.55l-.17-1.21,0,0-.06-.76c0-.25-.05-.5-.07-.76l0-.38c0-.32,0-.64-.07-1s-.05-.63-.07-1v-.13c0-.27,0-.55-.05-.83l0-.52-.06-1,0-.61c0-.32,0-.63,0-.95l0-1c0-.55,0-1.08,0-1.61l-.07-2.29h0c0-.31,0-.61,0-.91v-.36c0-.72,0-1.45,0-2.18,0-.48,0-1,0-1.43l0-1.53,0-1.47,0-.76c0-.34,0-.67,0-1,0-.17,0-.34,0-.5l0-.74c0-.33,0-.63,0-.92l0-.5a2,2,0,0,1,0-.32c0-.13,0-.27,0-.39s0-.4,0-.61,0-.51,0-.76a.66.66,0,0,0,0-.14l0-.39v-.16c0-.34,0-.71.08-1.08l0-.48a1.5,1.5,0,0,1,0-.22l.06-.83,0-.38c0-.25,0-.47.06-.69s0-.25,0-.37c0-.32,0-.64.08-.95l.09-.83c0-.38.08-.8.13-1.22h0l.17-1.4c0-.26.07-.53.1-.79h0l.3-2.14c.15-1.07.31-2.17.48-3.26.11-.73.24-1.47.36-2.2.07-.4.14-.81.22-1.21,0-.16,0-.32.08-.48s0-.27.08-.41l.21-1.13c.1-.54.21-1.08.32-1.62s.19-.94.29-1.42c0-.12,0-.24.07-.36.13-.6.26-1.21.4-1.81l.09-.39c.1-.47.21-.93.32-1.4l.23-1,.21-.89c0-.09,0-.19.08-.29.14-.57.28-1.15.44-1.72.39-1.53.83-3.14,1.34-4.9.45-1.52.83-2.78,1.21-3.95L76,161c.14-.44.28-.88.43-1.32,0-.11.08-.25.13-.39l.82-2.4c.14-.4.27-.78.41-1.16s.24-.69.38-1.05c.2-.56.42-1.15.65-1.74.07-.22.15-.44.24-.65.13-.36.29-.76.45-1.17l.15-.39s0-.1.06-.16a.3.3,0,0,0,0-.1l.6-1.49c.06-.16.12-.32.19-.47a3,3,0,0,1,.14-.33l.12-.31c.22-.51.43-1,.66-1.55.06-.17.15-.38.25-.6.23-.55.49-1.13.75-1.71l.05-.12.09-.2.06-.14.44-1,.27-.59,0-.07c.07-.16.15-.31.22-.47l.07-.15.29-.63c.24-.5.49-1,.75-1.57.09-.2.19-.4.29-.6.23-.48.47-1,.7-1.43l.62-1.23.57-1.12c.06-.13.15-.28.24-.45s.26-.51.41-.78l.28-.55.14-.25c.28-.54.58-1.09.88-1.63l.27-.49c.16-.3.34-.62.52-.94l.27-.49.57-1,.26-.44.06-.1c.19-.34.41-.72.63-1.09l.13-.23c.1-.17.2-.34.31-.51l.85-1.43.17-.28.73-1.18v0l.09-.14.1-.16c.08-.14.17-.28.26-.41.17-.29.35-.57.53-.85l.5-.78a3.23,3.23,0,0,0,.18-.28c0-.07.08-.13.12-.18l0-.06c.43-.65.85-1.31,1.3-2l.43-.66.07-.11.72-1,.17-.24c.38-.56.76-1.11,1.15-1.66l.2-.27c.11-.17.22-.33.34-.49l.5-.69c.19-.27.38-.54.59-.8s.29-.42.44-.62l0-.05.64-.86.34-.46.45-.59c.19-.25.38-.51.58-.76l.31-.4.14-.18,0,0,.59-.76.08-.15.17-.16.39-.5.33-.42c2-2.47,4-4.94,6.18-7.31,1-1.14,2.1-2.33,3.43-3.73l1.54-1.61,1.67-1.69,1.49-1.47.09-.09a174,174,0,0,1,16-13.79c1.15-.88,2.4-1.81,3.82-2.83,2-1.41,3.94-2.77,5.89-4.06l2-1.29c1.45-.93,2.78-1.75,4.06-2.52l.47-.27c.19-.1.37-.2.55-.28a11.87,11.87,0,0,1,5.13-1.2h0a12.14,12.14,0,0,1,6.55,1.95A12.72,12.72,0,0,1,168,69.6a11.89,11.89,0,0,1,1.16,2.31l0,0,.16.5a10.79,10.79,0,0,1,.38,1.54c0,.26.09.53.12.82a12,12,0,0,1-.58,5.06l-.63,1.93c-.26.81-.51,1.61-.75,2.43l-.47,1.57c-.13.44-.25.9-.38,1.35l-.16.59a166.79,166.79,0,0,0-6,38.41c0,.68-.05,1.38-.06,2.08v.06c0,.68,0,1.36,0,2s0,1.41,0,2.11c0,4.26.17,8.55.48,12.75.06.78.13,1.56.2,2.33s.15,1.6.23,2.4v.15c.09.82.18,1.64.28,2.46s.19,1.57.29,2.35c.19,1.37.38,2.65.57,3.88.16,1,.33,2,.51,3.05v.07c.06.35.12.69.19,1,.11.6.22,1.2.34,1.79.06.32.11.6.17.89l.11.56c.08.35.15.71.22,1.06a167.63,167.63,0,0,0,87.82,114.65,165.52,165.52,0,0,0,71.26,18.38h.4l.7,0,1.69,0c1.07,0,2.14,0,3.22,0,.8,0,1.61,0,2.41,0s1.47,0,2.19-.06h.43l1.65-.07,1.09-.05,1.79-.11.41,0,1.44-.1.57,0,.14,0h.07c1.29-.1,2.66-.23,4.18-.38l1.68-.18,1.64-.2c3.22-.39,6.45-.89,9.62-1.47l1.66-.31,2.73-.55c.52-.1,1-.21,1.53-.33.85-.18,1.68-.37,2.5-.56l.87-.18a12,12,0,0,1,13,6.88,11.85,11.85,0,0,1,.55,1.42l.12.38a.73.73,0,0,0,0,.16,11.64,11.64,0,0,1-.19,6.84l0,.07-.11.3-.06.15c0,.12-.09.24-.14.36l-.08.19c0,.07-.07.15-.1.23l-.13.27-.23.44-.18.3a9.92,9.92,0,0,1-.67,1c-.38.53-.78,1.06-1.17,1.59-.86,1.16-1.65,2.2-2.4,3.17-1.31,1.68-2.54,3.2-3.77,4.67-.71.85-1.42,1.69-2.14,2.52s-1.36,1.55-2,2.31c-1.18,1.33-2.42,2.66-3.66,4-3.64,3.8-7.48,7.47-11.42,10.89-.59.52-1.19,1-1.8,1.54-1.18,1-2.4,2-3.62,3-.85.68-1.7,1.35-2.57,2-2,1.56-4.09,3.07-6.11,4.5l-1.29.89c-1.9,1.31-3.95,2.67-6.09,4-1,.62-2,1.23-3,1.83-4.17,2.51-8.49,4.85-12.83,7l-1.66.81c-2.24,1.07-4.49,2.08-6.69,3-.55.24-1.11.48-1.68.71l-.58.23-1.33.54c-2.46,1-5,1.92-7.53,2.8l-1.11.37-.07,0-2.23.74-1.32.41c-2.88.9-5.83,1.74-8.77,2.49l-1.84.46-1.38.33-.72.16-1.47.33-.36.08-1.84.4-1.88.37c-.61.13-1.24.24-1.86.36l-1.89.34-1.92.32-.4.07-1.46.22-.22,0-1.79.26c-1.22.17-2.46.33-3.7.47s-2.56.28-3.84.41-2.63.23-3.89.32c-1.79.13-3.42.22-5,.29s-3.13.11-5,.14ZM74,236.27l0,.4c.07.47.13.94.2,1.4s.13.84.19,1.25l.1.64c.07.47.15,1,.24,1.45l.06.38c.1.61.21,1.22.32,1.83l.24,1.31.1.52A167.47,167.47,0,0,0,240.07,381.37l2.46,0c1.78,0,3.37-.07,4.83-.14s3.12-.15,4.86-.28c1.22-.08,2.49-.19,3.77-.31l3.75-.39c1.2-.15,2.41-.3,3.6-.47.59-.07,1.17-.16,1.75-.25l.22,0,1.41-.22.4-.06,1.86-.31c.61-.11,1.22-.21,1.82-.33l1.82-.34,1.82-.37,1.79-.38.37-.08,1.43-.33.7-.16,1.34-.32,1.78-.44c2.87-.73,5.74-1.55,8.54-2.42l1.3-.41,2.14-.71.09,0,1.05-.36c2.48-.86,4.95-1.77,7.35-2.73l1.3-.52.5-.21.05,0c.55-.22,1.09-.45,1.64-.69,2.13-.9,4.32-1.89,6.52-2.93l1.59-.77c4.23-2.07,8.43-4.35,12.49-6.79,1-.58,1.94-1.18,2.9-1.78,2.07-1.31,4.07-2.63,5.94-3.91.42-.29.83-.57,1.23-.86,2-1.39,4-2.86,6-4.38l2.49-2c1.2-1,2.38-1.94,3.53-2.91.58-.49,1.17-1,1.74-1.5h0c3.83-3.33,7.57-6.9,11.11-10.59,1.2-1.27,2.4-2.56,3.56-3.85.68-.75,1.34-1.51,2-2.26s1.39-1.63,2.08-2.45c1.2-1.43,2.4-2.92,3.66-4.54.74-.95,1.5-2,2.34-3.09l1.15-1.56c.16-.22.29-.43.42-.64l.14-.25.11-.21.05-.11.09-.2.24-.62a7.08,7.08,0,0,0,.12-4.2l-.1-.35a8.93,8.93,0,0,0-.33-.83,7.42,7.42,0,0,0-8-4.25l-.57.11c-.84.2-1.7.4-2.56.58-.51.12-1,.23-1.58.34-.93.2-1.86.39-2.79.56l-1.71.32c-3.26.6-6.58,1.11-9.87,1.51l-1.69.2-1.76.19c-1.54.16-2.95.29-4.28.39l-.79.06-1.52.11-.39,0-1.84.11-1.13.05-1.65.07-.49,0c-.74,0-1.48,0-2.23.06s-1.66,0-2.49,0c-1.1,0-2.2,0-3.3,0l-1.73,0-.74,0-.39,0A170.11,170.11,0,0,1,250.11,286a173.06,173.06,0,0,1-81.77-89.77,170.51,170.51,0,0,1-8.48-28.06c-.08-.36-.15-.73-.23-1.1l-.11-.56c-.07-.31-.12-.61-.18-.92-.12-.59-.24-1.22-.35-1.85-.07-.35-.13-.71-.2-1.08v-.06c-.18-1-.36-2.08-.52-3.13-.2-1.27-.39-2.58-.59-4-.1-.81-.2-1.6-.29-2.39s-.2-1.64-.28-2.47l0-.16c-.08-.84-.17-1.69-.24-2.54s-.14-1.59-.2-2.39c-.33-4.32-.49-8.73-.49-13.1,0-.73,0-1.45,0-2.17s0-1.4,0-2.11,0-1.48.07-2.19a171.1,171.1,0,0,1,6.12-39.49l.17-.59c.13-.48.26-.95.4-1.43l.47-1.58q.38-1.26.78-2.52l.63-1.94a7.31,7.31,0,0,0,.37-3.14,3.32,3.32,0,0,0-.06-.44v-.08A6.08,6.08,0,0,0,165,74l-.05-.16a6.87,6.87,0,0,0-.81-1.71,7.71,7.71,0,0,0-2.31-2.31,7.41,7.41,0,0,0-4-1.2h0a7.09,7.09,0,0,0-3.13.74l0,0-.27.13-.3.17c-1.27.76-2.56,1.56-4,2.46l-2,1.26c-1.9,1.25-3.83,2.58-5.73,4-1.38,1-2.6,1.89-3.71,2.75a167.82,167.82,0,0,0-15.54,13.41l-.09.09L121.61,95q-.85.86-1.65,1.68c-.52.53-1,1-1.52,1.58-1.28,1.35-2.34,2.5-3.33,3.62-2.07,2.31-4.09,4.71-6,7.12l-.28.34-.63.8c-.2.26-.41.52-.61.79l-.5.65c-.18.22-.36.46-.53.69l-.5.67a2.49,2.49,0,0,0-.23.31l0,.06c-.21.27-.42.56-.63.84s-.28.38-.4.56l-.08.11c-.19.24-.36.48-.53.72l-.57.79-.18.25-.15.21-.12.17-1.1,1.59v0l-.14.19-.72,1.06-.08.12c-.14.21-.29.42-.42.64-.45.65-.85,1.27-1.26,1.89a.83.83,0,0,1-.08.12,3.93,3.93,0,0,1-.28.44c-.16.24-.3.48-.45.71l-.51.81-.06.1-.21.33-.13.2a.57.57,0,0,1-.08.13l-.67,1.09-.17.29c-.3.49-.58,1-.85,1.43l0,.06-.26.43-.14.23c-.19.33-.4.68-.6,1l-.08.14-.22.37c-.21.36-.38.68-.56,1l-.27.48c-.16.3-.33.6-.5.9l-.28.51c-.29.52-.57,1.05-.85,1.57l-.82,1.58-.18.32-.59,1.17c-.2.4-.4.79-.59,1.18s-.47.93-.69,1.39l0,.08c-.07.14-.14.28-.2.43l0,.07c-.26.52-.5,1-.75,1.56-.1.22-.19.4-.27.59l-.09.19-.18.38,0,.12c-.1.21-.18.38-.26.57-.16.34-.29.63-.41.92l-.21.46-.74,1.7-.23.54c-.23.54-.44,1-.64,1.54l-.18.43s0,0,0,0l-.11.27a1.66,1.66,0,0,0-.12.31l0,.07c-.2.49-.4,1-.59,1.47l-.24.61L83.4,154c-.08.19-.13.33-.18.48l0,.09c-.22.58-.44,1.15-.65,1.73-.13.35-.25.66-.35,1-.21.57-.39,1.11-.58,1.65L81,160.83c0,.11-.06.19-.09.27l-.42,1.31-.16.49c-.37,1.14-.74,2.35-1.17,3.82-.49,1.71-.92,3.28-1.31,4.78-.16.59-.3,1.16-.44,1.73l0,.18c-.08.3-.15.6-.22.9s-.16.64-.22.93c-.12.47-.22.92-.32,1.36l-.09.41-.39,1.77v.07s0,.05,0,.08l0,.12c-.1.48-.2.95-.29,1.42s-.22,1.06-.31,1.58-.15.75-.21,1.12l0,.07c0,.08,0,.15,0,.23l0,.13a2,2,0,0,0-.06.35l0,.08-.21,1.17c-.12.71-.24,1.42-.35,2.13-.16,1-.32,2.08-.46,3.12l.09.09-.26,1.13c-.07.6-.14,1.16-.21,1.72l-.06.51-.09.77c-.05.42-.09.84-.13,1.26l-.1.83c0,.27,0,.57-.07.87l0,.38-.06.67,0,.37c0,.28,0,.56-.07.84l-.06.62c0,.38,0,.72-.07,1.05l0,.21c0,.11,0,.22,0,.32v.21c0,.23,0,.47,0,.71v.08a3.67,3.67,0,0,0,0,.46c0,.14,0,.28,0,.4l0,.37c0,.13,0,.25,0,.38v.1c0,.27,0,.54,0,.81a2.09,2.09,0,0,1,0,.24l0,.67a1.93,1.93,0,0,0,0,.24v.15c0,.29,0,.6,0,.9l0,.77c0,.49,0,1,0,1.45l0,1.46c0,.47,0,.94,0,1.41,0,.72,0,1.45,0,2.17v.23l0,2,0,1.21c0,.54,0,1.05.06,1.57l0,1c0,.32,0,.59,0,.87V222c0,.16,0,.31,0,.47q0,.54.06,1.05v.1a2.09,2.09,0,0,0,0,.25v.14l.06.91v.11h0c0,.28.05.55.07.83s0,.65.07,1l0,.38c0,.24,0,.47.06.71,0,.53.09,1.05.14,1.57v.09l.18,1.17-.06.07.06.59c0,.3.06.58.1.86l0,.35c0,.44.1.87.15,1.3a1.2,1.2,0,0,0,0,.23v.15c.08.67.16,1.28.25,1.89Zm-.14-44.54v0Zm0-.12h0Zm83.2-41.2v0Zm4.65-.33v0ZM85,150Z"/><path class="b836044c-fc70-409e-a390-45bf1b3f661f" d="M240.57,346.9c-1.25,9-8.43,15.7-16.53,19-13.71,5.72-29.64,4-42.88-2.23-11.87-5.7-22.81-16-25.27-29.44a23.87,23.87,0,0,1,6-20.73,26.35,26.35,0,0,1,6.9-5.12,30.69,30.69,0,0,0-5.83,6c-12.27,17.8,3.78,37.22,20.32,44.77A57.61,57.61,0,0,0,215,364.56c10.76-1.33,22-6.71,25.61-17.66Z"/><path class="b836044c-fc70-409e-a390-45bf1b3f661f" d="M168.33,339.16A19.52,19.52,0,0,1,174.92,313c8.22-5.49,18.72-6.27,28.18-4.25,12.5,2.77,25,10.82,29.35,23.39,3.56,10.38-1.31,20.86-11.13,25.44a31.17,31.17,0,0,1-9.24,2.78,40.61,40.61,0,0,1-18.61-1.89.75.75,0,0,1,.4-1.44c11.07,2.34,24.61,1.26,32.06-8.07,7.31-9.77.63-22-8.27-28.33-11.28-8.18-28.06-11.47-40.56-4.26a16.83,16.83,0,0,0-8.26,17.78A21.22,21.22,0,0,0,170,338.4a.93.93,0,0,1-1.69.76Z"/><path class="fc51ca04-42e1-4f50-bc91-7670b5994a58" d="M265.25,309.13a22.44,22.44,0,0,1-4.4,5.87h0A19.4,19.4,0,0,1,249,320.16a10.91,10.91,0,0,1-6-1.27,73.24,73.24,0,0,1-7.93-5,134,134,0,0,1-19.79-17.78,224.48,224.48,0,0,1-15.72-19c-3.22-4.35-5.07-7.17-5.07-7.17l36.18-7.62C232.81,263.44,272.17,296.07,265.25,309.13Z"/><path class="b836044c-fc70-409e-a390-45bf1b3f661f" d="M248.15,322.32a13.08,13.08,0,0,1-6.15-1.55c-25.51-13.65-48.32-48.14-49.28-49.6a2.13,2.13,0,1,1,3.56-2.33c.23.35,23.18,35.05,47.73,48.17a8.82,8.82,0,0,0,4.81,1c4.43-.35,10.55-2.36,14.55-9.91,2.31-4.35-2.53-13.51-13.28-25.11a170.68,170.68,0,0,0-20.4-18.76,2.13,2.13,0,0,1,1.94-3.79c2.2,1.1,30.67,24.61,35.75,40.42,1.16,3.63,1.08,6.73-.25,9.24-5.16,9.74-13.48,11.79-18,12.15C248.82,322.3,248.48,322.32,248.15,322.32Z"/><path class="fc51ca04-42e1-4f50-bc91-7670b5994a58" d="M246.14,302.16a6.21,6.21,0,0,1-.56,2.47h0a17.72,17.72,0,0,1-8.42,8.54,9.35,9.35,0,0,1-2.07.75c-4.7,1.1-7.44-2.75-11.45-6.25-3.63-3.17-9.12-6.37-8.34-11.53a9.65,9.65,0,0,1,1.63-3.9,3.91,3.91,0,0,1,.34-.49,22.85,22.85,0,0,1,2.08-2.53c5.18-5.46,10.66-5.68,10.66-5.68l10.43,12.29S246,299.79,246.14,302.16Z"/><path class="b836044c-fc70-409e-a390-45bf1b3f661f" d="M233.5,316.25c-3.85,0-6.66-2.66-9.22-5.08-.66-.62-1.34-1.27-2.05-1.89s-1.25-1-1.95-1.6c-4.31-3.47-10.81-8.7-4.75-17.17,6.21-8.66,14.06-9.07,14.39-9.09a2.13,2.13,0,0,1,.18,4.25c-.28,0-6.19.45-11.11,7.32-3.55,4.95-1,7.43,4,11.37.7.56,1.42,1.14,2.08,1.72s1.48,1.35,2.17,2c3.67,3.46,5.44,4.92,9,3.19,5.55-2.7,7.85-7.81,7.79-9-.18-.77-2.47-3-4.81-4.69a2.13,2.13,0,1,1,2.46-3.47c1.93,1.36,6.44,4.87,6.6,7.94.17,3.23-3.36,9.73-10.18,13A10.42,10.42,0,0,1,233.5,316.25Z"/><path class="fc51ca04-42e1-4f50-bc91-7670b5994a58" d="M335.65,302.63c13.93,11.74,3.54,32.45-17,26.24,0,12.95-5.41,18.17-5.41,18.17s10.2,8.78,5.59,19.86a14.76,14.76,0,0,1-2.64,4.23c-6,6.64-16.92,5.77-22.81,2.16-6.91-4.26-18.88-27-15.33-35.11a52,52,0,0,0,3.9-16.4c-17-1.92-32.35-15.19-42.78-26.91-2.94-3.29-5.49-6.46-7.58-9.23-4.19-5.53-6.56-9.43-6.56-9.43-37,4.32-56.11-4.6-51.1-31.39a67.3,67.3,0,0,1,1.75-7s82.63-8.8,96.11-17.08a87.58,87.58,0,0,0,21.33-18.36s-1.77-2.3-2.3-10.54,6.41-5.91,6.41-5.91,17.52-2.07,18.64-.65,12.18,12.94,6.08,24-22.27,32.1-22.27,32.1l14.16,10.57C359.41,241.37,384.94,290.93,335.65,302.63Z"/><ellipse class="afc7e597-3de8-4cb4-9f71-7e722886901d" cx="323.63" cy="163.96" rx="9.63" ry="9.28"/><g class="e861d5c9-537a-4358-bfea-fcf1a94243c6"><path class="fc51ca04-42e1-4f50-bc91-7670b5994a58" d="M331,169.93a8.94,8.94,0,0,0,.58-3.19,9.46,9.46,0,0,0-9.64-9.28,9.78,9.78,0,0,0-7.36,3.29,9.63,9.63,0,0,1,9-6.07,9.46,9.46,0,0,1,9.64,9.28A9,9,0,0,1,331,169.93Z"/></g><path class="b836044c-fc70-409e-a390-45bf1b3f661f" d="M303.93,378.21a23.11,23.11,0,0,1-11.69-3.11c-7.86-4.84-20.17-28.57-16.17-37.77a50,50,0,0,0,3.55-13.72c-28.51-4.67-51.33-38.28-55.71-45.14-24.37,2.67-40-.52-47.67-9.73-6-7.12-6.83-17.74-2.63-31.57a2.13,2.13,0,0,1,1.81-1.49c28.42-3,84.88-10.44,95.22-16.78a88.51,88.51,0,0,0,19.92-16.83c-.68-1.65-1.55-4.73-1.9-10.13-.21-3.35.62-5.78,2.49-7.21a7.44,7.44,0,0,1,6.22-1c18.3-2.14,19.45-.69,20.14.18l.33.39c10.19,11.9,8.86,20.7,5.94,26-5.15,9.36-17.13,25.37-21.13,30.65l11.65,8.7c26-5.6,46,7.6,49.66,23.28a21.61,21.61,0,0,1-4.36,18.8c-4.22,5.27-11,9.39-19.85,12,4.77,5.72,5.8,13.12,2.41,19.36-3,5.56-10.35,10.81-21.49,8.49-.47,8-3,12.93-4.61,15.29,2.91,3.15,8.75,11.12,4.71,20.84a16.31,16.31,0,0,1-10.34,9.49A21,21,0,0,1,303.93,378.21ZM225,274.08a2.13,2.13,0,0,1,1.82,1c.25.42,25.36,41.18,55.34,44.57a2.11,2.11,0,0,1,1.88,2.2A53.4,53.4,0,0,1,280,339c-3.07,7.05,8.42,28.71,14.5,32.45a18.84,18.84,0,0,0,14.65,1.68,12,12,0,0,0,7.72-7.07c4-9.49-4.65-17.11-5-17.43a2.15,2.15,0,0,1-.73-1.55,2.11,2.11,0,0,1,.65-1.59s4.76-4.92,4.76-16.65a2.13,2.13,0,0,1,2.74-2c10.19,3.08,16.7-1.18,19.18-5.76,3-5.55,1.39-12.15-4.15-16.81a2.13,2.13,0,0,1-.69-2.12,2.09,2.09,0,0,1,1.57-1.58c21.6-5.13,26.9-17.13,24.67-26.65-1.61-6.87-7-13.07-14.67-17-8.73-4.46-19.69-5.49-30.86-2.9a2.11,2.11,0,0,1-1.75-.37l-14.16-10.57a2.13,2.13,0,0,1-.84-1.41,2.19,2.19,0,0,1,.42-1.59c.17-.21,16.14-21,22.1-31.83,2.26-4.11,3.15-11.11-5.45-21.16l-.09-.1c-2.06-.37-10.24.23-17.07,1a2.11,2.11,0,0,1-.93-.1,3.54,3.54,0,0,0-2.78.19c-.65.5-.95,1.77-.83,3.56.43,6.72,1.71,9.12,1.89,9.42a2,2,0,0,1,0,2.57,88.87,88.87,0,0,1-21.9,18.86c-12.9,7.92-84.22,16-95.58,17.23-3.32,11.7-2.57,20.53,2.21,26.26,6.75,8.08,22,10.8,45.25,8.09Z"/><path class="b836044c-fc70-409e-a390-45bf1b3f661f" d="M323.63,175A11.06,11.06,0,1,1,335,164,11.25,11.25,0,0,1,323.63,175Zm0-18.56a7.52,7.52,0,1,0,7.86,7.51A7.7,7.7,0,0,0,323.63,156.45Z"/><path class="fc51ca04-42e1-4f50-bc91-7670b5994a58" d="M245.23,265.31c4.58,6.9,11.67,12.88,19.86,18.45a8.77,8.77,0,0,0,9,.5,316.34,316.34,0,0,0,37.44-23.06,4.18,4.18,0,0,0,1.72-3l.52-6.22a4.16,4.16,0,0,0-1-3c-2.94-3.5-11.47-12.83-22.08-16.91a4.22,4.22,0,0,0-2.95,0c-5.66,2.06-26.95,10.22-41,21.29a4.23,4.23,0,0,0-1.6,2.88l-.67,6.39A4.2,4.2,0,0,0,245.23,265.31Z"/><path class="b836044c-fc70-409e-a390-45bf1b3f661f" d="M270,287.41a10.85,10.85,0,0,1-6.13-1.89c-9.7-6.6-16.2-12.65-20.43-19a6.41,6.41,0,0,1-1-4.18l.67-6.4a6.44,6.44,0,0,1,2.4-4.32c14.21-11.18,35.44-19.38,41.6-21.62a6.34,6.34,0,0,1,4.44,0c11,4.22,19.71,13.67,23,17.53a6.26,6.26,0,0,1,1.45,4.59l-.52,6.22a6.33,6.33,0,0,1-2.59,4.59,317,317,0,0,1-37.69,23.21A10.92,10.92,0,0,1,270,287.41Zm19.22-53.58a1.84,1.84,0,0,0-.69.13c-6,2.19-26.72,10.17-40.43,21a2.11,2.11,0,0,0-.79,1.43l-.68,6.39a2.17,2.17,0,0,0,.35,1.39h0c3.92,5.91,10.05,11.59,19.29,17.88a6.64,6.64,0,0,0,6.85.37,312.33,312.33,0,0,0,37.19-22.9,2.07,2.07,0,0,0,.84-1.5l.52-6.22a2,2,0,0,0-.47-1.49c-3-3.61-11.16-12.43-21.22-16.29A2,2,0,0,0,289.24,233.83Z"/><path class="fc51ca04-42e1-4f50-bc91-7670b5994a58" d="M151.58,190.84a68.65,68.65,0,1,0,54.54-80.32A68.65,68.65,0,0,0,151.58,190.84Z"/><g class="acf8db99-e91a-46ac-8e5d-bf9f6fa5a138"><path class="b836044c-fc70-409e-a390-45bf1b3f661f" d="M151.58,190.84a68.64,68.64,0,0,0,121.59,29.27c.65-.83,1.27-1.66,1.87-2.53a68.64,68.64,0,0,1-104.1-88.64A68.56,68.56,0,0,0,151.58,190.84Z"/></g><path class="b836044c-fc70-409e-a390-45bf1b3f661f" d="M173.86,188a59.52,59.52,0,0,0,99.31,32.12,68.63,68.63,0,0,0-7.78-92.78A59.52,59.52,0,0,0,173.86,188Z"/><g class="b81a921d-9e0f-4d10-a880-848dad99f1d1"><path class="b75c2c97-14ea-446d-a886-205730cc57dd" d="M173.86,188a59.52,59.52,0,0,0,99.31,32.12,68.51,68.51,0,0,0,12.32-25.05,68.66,68.66,0,0,1-112.44-12.87A58.16,58.16,0,0,0,173.86,188Z"/></g><path class="b836044c-fc70-409e-a390-45bf1b3f661f" d="M219,248.72a70.88,70.88,0,0,1-69.49-57.48h0A70.77,70.77,0,1,1,219,248.72Zm-65.31-58.28a66.52,66.52,0,1,0,52.85-77.83,66.6,66.6,0,0,0-52.85,77.83Z"/><ellipse class="fc51ca04-42e1-4f50-bc91-7670b5994a58" cx="172.83" cy="222.58" rx="19.05" ry="23.75" transform="translate(-98.11 145.08) rotate(-36.21)"/><g class="acf8db99-e91a-46ac-8e5d-bf9f6fa5a138"><path class="b836044c-fc70-409e-a390-45bf1b3f661f" d="M157.45,233.83c7.75,10.58,20.91,14.13,29.4,7.91,4.29-3.13,6.56-8.15,6.77-13.71a16.84,16.84,0,0,1-1.52,1.25c-8.48,6.22-21.64,2.68-29.39-7.9a27,27,0,0,1-5.43-16.7C150.26,211.35,150.2,223.92,157.45,233.83Z"/></g><path class="b836044c-fc70-409e-a390-45bf1b3f661f" d="M177.18,246.94a22.82,22.82,0,0,1-5.86-.8,28.92,28.92,0,0,1-15.58-11h0c-8.43-11.51-7.62-26.49,1.8-33.39s24-3.14,32.38,8.37,7.61,26.49-1.81,33.39A18.3,18.3,0,0,1,177.18,246.94Zm-8.67-44.46a14.06,14.06,0,0,0-8.45,2.66c-7.53,5.51-7.93,17.82-.89,27.44h0A24.67,24.67,0,0,0,172.43,242c4.92,1.32,9.59.61,13.17-2,7.53-5.51,7.92-17.82.88-27.44C181.74,206.11,174.82,202.48,168.51,202.48Z"/><path class="b836044c-fc70-409e-a390-45bf1b3f661f" d="M172.19,244.13a16,16,0,0,1-4.73-.74,23.82,23.82,0,0,1-16-21.79c.05-4.73,1.89-8.65,5.18-11.07s7.6-3,12.11-1.59a23.8,23.8,0,0,1,16,21.79c-.05,4.72-1.89,8.65-5.18,11.06A12.31,12.31,0,0,1,172.19,244.13Zm-8.11-32.38a8.77,8.77,0,0,0-5.3,1.65c-2.37,1.73-3.7,4.65-3.73,8.23a19.07,19.07,0,0,0,3.9,11.25h0A19.15,19.15,0,0,0,168.5,240c3.42,1.05,6.6.67,9-1.07s3.7-4.66,3.73-8.23a20.27,20.27,0,0,0-13.45-18.37A12.46,12.46,0,0,0,164.08,211.75Z"/><path class="b836044c-fc70-409e-a390-45bf1b3f661f" d="M168.58,202.23a1.87,1.87,0,0,1-1.81-1.39c-6.45-24.19-2.67-47.49,10.66-65.59a66.76,66.76,0,0,1,51.33-27.13,1.87,1.87,0,0,1,.16,3.74,63.05,63.05,0,0,0-48.47,25.61c-12.64,17.17-16.21,39.33-10.06,62.41a1.87,1.87,0,0,1-1.33,2.29A2,2,0,0,1,168.58,202.23Z"/><path class="b836044c-fc70-409e-a390-45bf1b3f661f" d="M228.29,246c-25.14,0-36-12.76-36.52-13.38a1.88,1.88,0,1,1,2.89-2.39c.15.18,13.68,15.82,45.32,11.12a1.88,1.88,0,0,1,.55,3.71A84,84,0,0,1,228.29,246Z"/><g class="f6427437-c86a-4498-a652-77455648d4d6"><path class="fc51ca04-42e1-4f50-bc91-7670b5994a58" d="M202.31,141.13c29.43-28.85,67-10.63,71.53,22.93a1.6,1.6,0,0,1-2.72,1.32c-17.92-18.06-39.34-27.71-67.33-21.58A1.59,1.59,0,0,1,202.31,141.13Z"/></g><g class="f6427437-c86a-4498-a652-77455648d4d6"><path class="fc51ca04-42e1-4f50-bc91-7670b5994a58" d="M191.56,198c3.41,4.66,9.25,6.19,13,3.42s3.45-8,0-12.66-8.6-7-12.39-4.23S188.15,193.34,191.56,198Z"/></g><g class="f6427437-c86a-4498-a652-77455648d4d6"><ellipse class="fc51ca04-42e1-4f50-bc91-7670b5994a58" cx="216.38" cy="211.42" rx="5.84" ry="6.33" transform="translate(-16.43 404.61) rotate(-84.02)"/></g><path class="fc51ca04-42e1-4f50-bc91-7670b5994a58" d="M256.28,278.39a35.48,35.48,0,0,0-10.56,6.79,25.07,25.07,0,0,0-6,8.75,2.89,2.89,0,0,1-.59.94,3,3,0,0,1-4.44,0l-3.23-3.45a3,3,0,0,1-.81-2.35,13.24,13.24,0,0,1,.9-3.44,25.33,25.33,0,0,1,5.7-8,103,103,0,0,1,12.06-9.87,3,3,0,0,1,3.68,0,14.33,14.33,0,0,1,5,6.84A3.06,3.06,0,0,1,256.28,278.39Z"/><path class="b836044c-fc70-409e-a390-45bf1b3f661f" d="M236.9,298a5.1,5.1,0,0,1-3.75-1.64l-3.23-3.45a5,5,0,0,1-1.37-4c1-8.61,9.79-15.71,19.51-22.83h0a5.21,5.21,0,0,1,6.24.09A16.44,16.44,0,0,1,260,274a5.18,5.18,0,0,1-2.86,6.4c-7.83,3.4-12.88,8.11-15.43,14.39a5.2,5.2,0,0,1-4.8,3.23Zm13.68-28.52c-8.94,6.53-17,13-17.8,19.88a.81.81,0,0,0,.25.65l3.22,3.45a.91.91,0,0,0,1.51-.29c3-7.26,8.89-12.88,17.67-16.7a.93.93,0,0,0,.52-1.15,12.11,12.11,0,0,0-4.26-5.83.92.92,0,0,0-1.11,0Z"/><path class="b836044c-fc70-409e-a390-45bf1b3f661f" d="M271.48,276.18a7.89,7.89,0,0,1-4.89-1.67c-7.73-6.08-13.55-11.65-17.8-17a6.12,6.12,0,0,1-1.25-4.66,6,6,0,0,1,2.5-4l2.5-1.75a1.77,1.77,0,1,1,2,2.9l-2.5,1.76a2.43,2.43,0,0,0-1,1.66,2.53,2.53,0,0,0,.52,1.94c4.08,5.16,9.7,10.54,17.21,16.44a4.4,4.4,0,0,0,4.92.32l34.39-20.21a3.14,3.14,0,0,0,.94-4.58,1.77,1.77,0,1,1,2.85-2.11,6.71,6.71,0,0,1-2,9.75L275.5,275.1A7.9,7.9,0,0,1,271.48,276.18Z"/><path class="b836044c-fc70-409e-a390-45bf1b3f661f" d="M297.17,262.08a1.79,1.79,0,0,1-1.11-.39l-11.12-8.89-7.48.65a1.76,1.76,0,0,1-1.35-.47l-10.64-9.81a1.77,1.77,0,1,1,2.4-2.6l10.07,9.28,7.4-.65a1.73,1.73,0,0,1,1.26.39l11.67,9.33a1.77,1.77,0,0,1-1.1,3.16Z"/><ellipse class="bc2f0456-3b6d-4f07-88ef-57915009e4c9" cx="289.13" cy="241.37" rx="4.73" ry="3.58"/><path class="b836044c-fc70-409e-a390-45bf1b3f661f" d="M289.13,246.09c-3.24,0-5.87-2.12-5.87-4.72s2.63-4.72,5.87-4.72,5.87,2.12,5.87,4.72S292.37,246.09,289.13,246.09Zm0-7.16c-1.94,0-3.59,1.12-3.59,2.44s1.65,2.43,3.59,2.43,3.59-1.11,3.59-2.43S291.07,238.93,289.13,238.93Z"/><path class="bee86a88-869d-4b0e-b293-99d457ebd0b6" d="M324.71,213.9l-10.88.9-6.77.54-7.25.57a.8.8,0,0,1-.87-.8.79.79,0,0,1,.36-.66l9.05-5.88a1.29,1.29,0,0,0,.59-1.27l-1-7.35a1.3,1.3,0,0,0-1-1.09,12.61,12.61,0,0,1-9.45-10.64l-2.64-20.71a41.42,41.42,0,0,1,8.71-3,46.11,46.11,0,0,1,18.34-.65L324.24,179s2.54,13.44-5.67,18l-.12,9.22,7,5.35A1.33,1.33,0,0,1,324.71,213.9Z"/><path class="b836044c-fc70-409e-a390-45bf1b3f661f" d="M299.74,217.69a2.57,2.57,0,0,1-1.4-4.73l8.8-5.72-.93-6.74a14.3,14.3,0,0,1-10.47-12.06l-2.64-20.7a1.78,1.78,0,0,1,.95-1.8,48,48,0,0,1,28.16-3.82,1.77,1.77,0,0,1,1.45,1.47L326,178.68c.17.92,2.38,13.86-5.66,19.27l-.1,7.35,6.26,4.81a3.11,3.11,0,0,1-1.63,5.56l-10.89.9h0l-14,1.11Zm14.09-2.89Zm-17-46.22L299.26,188a10.76,10.76,0,0,0,8.12,9.14,3.06,3.06,0,0,1,2.3,2.57l1,7.35a3.11,3.11,0,0,1-1.37,3l-5.83,3.78,10.2-.81,9.73-.8-6.05-4.66a1.78,1.78,0,0,1-.7-1.42l.12-9.22a1.79,1.79,0,0,1,.92-1.54c7-3.84,4.81-16,4.79-16.08a.13.13,0,0,1,0-.06l-2.14-13.83A45.93,45.93,0,0,0,296.79,168.58Z"/><path class="f5bb9058-fa20-43da-8bcb-079e697a65b3" d="M319.37,187.31c-4.69,8.87-15.21,9.23-17.2-1.42l-1.56-10c1.88-2.52,4.34-3.39,7.65-1.84a11.79,11.79,0,0,0,6.08,1.19,9.83,9.83,0,0,0,4.74-1.6l.94,6.86A14.08,14.08,0,0,1,319.37,187.31Z"/><path class="b836044c-fc70-409e-a390-45bf1b3f661f" d="M310.08,195.35a10.22,10.22,0,0,1-1.35-.1c-4-.62-7-4-8-9.1l-1.56-10.09a1.39,1.39,0,0,1,.26-1.06c2.41-3.23,5.66-4,9.39-2.27a10.37,10.37,0,0,0,5.34,1.06,8.28,8.28,0,0,0,4.06-1.35,1.42,1.42,0,0,1,1.38-.14,1.4,1.4,0,0,1,.84,1.11l.95,6.85a15.46,15.46,0,0,1-.74,7.59l-.06.13C318.19,192.58,314.16,195.35,310.08,195.35Zm-8-19.1,1.46,9.43c.72,3.85,2.76,6.33,5.59,6.76,3.25.49,6.82-1.8,8.93-5.72a12.86,12.86,0,0,0,.54-6l-.68-4.9a12.68,12.68,0,0,1-3.48.8,13.1,13.1,0,0,1-6.81-1.31C305.35,174.22,303.61,174.5,302.11,176.25Zm17.26,11.06h0Z"/><path class="fc51ca04-42e1-4f50-bc91-7670b5994a58" d="M331.51,194.56c.68,6.62-3.41,12.47-9.13,13.06s-9.33-4.47-10-11.09,1.82-12.31,7.54-12.9S330.83,187.93,331.51,194.56Z"/><g class="acf8db99-e91a-46ac-8e5d-bf9f6fa5a138"><path class="b836044c-fc70-409e-a390-45bf1b3f661f" d="M331.57,196.49c-.19,5.79-4,10.59-9.19,11.13-5.73.58-9.33-4.47-10-11.09a14.83,14.83,0,0,1,1.63-9.16,19.21,19.21,0,0,0,.08,3.11c.68,6.62,4.28,11.67,10,11.09A9.91,9.91,0,0,0,331.57,196.49Z"/></g><path class="b836044c-fc70-409e-a390-45bf1b3f661f" d="M321.47,209.44a9.34,9.34,0,0,1-7.34-3.52,16.78,16.78,0,0,1-3.52-9.21c-.85-8.23,2.82-14.19,9.12-14.84,6.69-.69,12.76,4.92,13.54,12.51h0c.78,7.58-4,14.32-10.71,15A10.23,10.23,0,0,1,321.47,209.44Zm-.63-24.08-.75,0c-5.17.54-6.44,6.24-6,11a13.6,13.6,0,0,0,2.71,7.29,5.92,5.92,0,0,0,5.36,2.22c4.74-.49,8.12-5.48,7.54-11.12h0C329.19,189.4,325.28,185.36,320.84,185.36Z"/><path class="b836044c-fc70-409e-a390-45bf1b3f661f" d="M192.3,276.93a1.42,1.42,0,0,1-1.29-.83c-.21-.46-5-11.25-.68-20.75,2.49-5.45,7.45-9.31,14.75-11.45a1.42,1.42,0,1,1,.8,2.72c-6.47,1.9-10.83,5.23-13,9.89-3.8,8.31.64,18.31.68,18.41a1.42,1.42,0,0,1-.7,1.88A1.37,1.37,0,0,1,192.3,276.93Z"/><path class="b836044c-fc70-409e-a390-45bf1b3f661f" d="M223.4,277l-2.21-8.74,5.41,7.21a1.81,1.81,0,1,1-3.2,1.53Z"/><path class="b836044c-fc70-409e-a390-45bf1b3f661f" d="M300.61,238.86h-.09a1.42,1.42,0,0,1-1.33-1.5c1.06-16.73-16-23.21-16.73-23.48a1.42,1.42,0,0,1,1-2.66c.2.07,19.78,7.46,18.59,26.32A1.4,1.4,0,0,1,300.61,238.86Z"/><path class="b836044c-fc70-409e-a390-45bf1b3f661f" d="M331.21,267.14c-5.74,6.07-12.82,10.19-19.95,14.33-3.46,2-7.26,3.59-10.7,5.68-4.6,3-9.38,7.06-9.54,12.69,0,5,5.6,10.23,9.52,12.9,6.89,4.41,12.7,5.13,17.43,12.88a8.89,8.89,0,0,0,1.75,1.86,1.77,1.77,0,0,1-2.18,2.79c-1.76-1.28-3-3.41-4.16-5-3.72-4.8-9.89-6.17-14.81-9.56s-11.14-9.41-11.1-15.84c.19-9.16,9.3-15.11,16.56-18.91,9-4.77,17.38-10.59,27.18-13.81Z"/><path class="b836044c-fc70-409e-a390-45bf1b3f661f" d="M334.49,304.41a96.22,96.22,0,0,0-9.39-7.54,98.74,98.74,0,0,1,11.73,4,2.16,2.16,0,1,1-2.34,3.56Z"/><path class="b836044c-fc70-409e-a390-45bf1b3f661f" d="M321.69,329.19c-2.77,0-5.2-1.53-6.71-2.49a1.41,1.41,0,1,1,1.51-2.39c3.4,2.14,6.5,3.56,10-.84s-.13-11.21-4.35-15.6c-4.05-4.23-17.62-11.51-24.2-13-5.56-1.25-7,3-7.16,3.52a1.42,1.42,0,0,1-2.73-.78c.73-2.56,3.87-7,10.51-5.51,7.24,1.63,21.13,9.11,25.63,13.79,5.25,5.47,9.19,13.42,4.52,19.33C326.32,328.23,323.9,329.19,321.69,329.19Z"/><path class="b836044c-fc70-409e-a390-45bf1b3f661f" d="M325.54,331.42a1.42,1.42,0,0,1-.41-2.77c4.11-1.25,6.78-3.31,7.93-6.12,1.93-4.69-.79-10.34-1.67-11.95-2.64-4.86-14.39-14.37-25-18.91-9.38-4-11.37-.76-11.39-.72a1.42,1.42,0,1,1-2.58-1.18c.28-.61,3.08-5.84,15.09-.71,11.32,4.83,23.49,14.81,26.4,20.16,1.32,2.43,4.14,8.7,1.81,14.39-1.49,3.63-4.77,6.24-9.74,7.75A1.4,1.4,0,0,1,325.54,331.42Z"/><path class="b836044c-fc70-409e-a390-45bf1b3f661f" d="M295.76,312.66l-.23,0a1.43,1.43,0,0,1-1.18-1.63l2.88-17.64a1.42,1.42,0,1,1,2.8.45l-2.88,17.65A1.41,1.41,0,0,1,295.76,312.66Z"/><path class="b836044c-fc70-409e-a390-45bf1b3f661f" d="M303.27,317.81l-.24,0a1.43,1.43,0,0,1-1.16-1.64l3.39-19.53a1.42,1.42,0,1,1,2.79.49l-3.38,19.52A1.42,1.42,0,0,1,303.27,317.81Z"/><path class="b836044c-fc70-409e-a390-45bf1b3f661f" d="M311.62,321.51h-.21a1.42,1.42,0,0,1-1.19-1.61L313,301a1.42,1.42,0,1,1,2.8.42L313,320.3A1.41,1.41,0,0,1,311.62,321.51Z"/><path class="b836044c-fc70-409e-a390-45bf1b3f661f" d="M318.6,328.49a1.33,1.33,0,0,1-.34-.05,1.42,1.42,0,0,1-1-1.72L322.16,307a1.42,1.42,0,1,1,2.75.69L320,327.41A1.43,1.43,0,0,1,318.6,328.49Z"/><path class="b836044c-fc70-409e-a390-45bf1b3f661f" d="M347.42,299.92a1.45,1.45,0,0,1-.84-.27,1.43,1.43,0,0,1-.31-2c2.54-3.46,3-7,1.41-10.44-3.49-7.53-15.56-12.92-24.75-13.59a1.41,1.41,0,0,1-1.32-1.51,1.44,1.44,0,0,1,1.52-1.32c10.22.75,23.15,6.64,27.12,15.23,2,4.41,1.46,9-1.69,13.31A1.42,1.42,0,0,1,347.42,299.92Z"/><path class="b836044c-fc70-409e-a390-45bf1b3f661f" d="M314.27,258.07a63.26,63.26,0,0,1,5.86,9.81,60.33,60.33,0,0,0-8.36-7.3,1.79,1.79,0,1,1,2.5-2.51Z"/><path class="b836044c-fc70-409e-a390-45bf1b3f661f" d="M280.16,321.54a15.86,15.86,0,0,0-.18-7.65,26,26,0,0,0-.81-2.65,25.64,25.64,0,0,1,1.63,2.3,18.12,18.12,0,0,1,2.88,8.48l-.07,1.9a2.49,2.49,0,1,1-3.45-2.38Z"/><path class="b836044c-fc70-409e-a390-45bf1b3f661f" d="M281.56,326.63a1.4,1.4,0,0,1-.78-.24,1.42,1.42,0,0,1-.39-2c.08-.13,8.53-12.45,25.5-8.26a1.42,1.42,0,0,1-.68,2.76c-15.06-3.72-22.39,7-22.46,7.07A1.45,1.45,0,0,1,281.56,326.63Z"/><path class="b836044c-fc70-409e-a390-45bf1b3f661f" d="M307.17,373.41l-.89,0c-5.54-.34-11-3.72-15.72-9.78-8.45-10.78-12-29.24-12.17-30a1.42,1.42,0,0,1,2.79-.53c0,.19,3.59,18.57,11.61,28.81,4.23,5.39,8.95,8.4,13.66,8.68,4,.25,7.9-1.47,11.53-5.09a1.42,1.42,0,0,1,2,2C316.08,371.37,311.67,373.41,307.17,373.41Z"/><path class="b836044c-fc70-409e-a390-45bf1b3f661f" d="M299.33,286.47c-2.34-1.83-5.35-2.75-8.19-3.61a28.43,28.43,0,0,1,9,.95,4.86,4.86,0,0,1,.7.28l-1.55,2.38Z"/><g class="acf8db99-e91a-46ac-8e5d-bf9f6fa5a138"><path class="b836044c-fc70-409e-a390-45bf1b3f661f" d="M316.16,371.13c-6,6.64-16.92,5.77-22.81,2.16-6.91-4.26-18.88-27-15.33-35.11a52,52,0,0,0,3.9-16.4c-17-1.92-32.35-15.19-42.78-26.91a3,3,0,0,1-4.44,0l-3.23-3.45a3,3,0,0,1-.81-2.35,13.24,13.24,0,0,1,.9-3.44c-4.19-5.53-6.56-9.43-6.56-9.43-37,4.32-56.11-4.6-51.1-31.39,2.53.46,6.35.82,9.64-.44h0l5.16-4.23c18.92,8.52,39.5,7.95,61.65-1.11-38.75,23.17-63.69,7.56-63.69,7.56h0c-.06,6.2,2.52,16.33,19.85,17,25.06,1,19-4.41,24.18,3.54s6.58,10.46,6.58,10.46-.15,10.13,8,7.06c0,0,.15.19.45.52,2.4,2.72,14.37,15.39,32.06,19.81,19.86,5,17,28.61,13.36,35.46s-4.86,16.17,3.77,25.89C300.25,372.34,309.71,372.15,316.16,371.13Z"/></g><g class="acf8db99-e91a-46ac-8e5d-bf9f6fa5a138"><path class="b836044c-fc70-409e-a390-45bf1b3f661f" d="M253.89,248.25c9.16,16.35,23.26,23.31,49.38,7.45l-26.9,16.83-.83,10.33-3.84,2.25s-10.86-4.36-11.32-4.7a50.32,50.32,0,0,0-5-1.62s-.94-7.37-9.25-7.13l3.11-2.48s-5-5.13-4.87-5.58,1.38-9.15,1.38-9.15l5.54-3.36Z"/></g><g class="acf8db99-e91a-46ac-8e5d-bf9f6fa5a138"><path class="b836044c-fc70-409e-a390-45bf1b3f661f" d="M328.7,268.72s17.89-3.86.63,8.2-28.63,16.28-17.71,22.83,15.45,9,16.28,13.87,11,11.11,14.66.83c0,0-1.24,12.47-14,15.13a14.39,14.39,0,0,1-16.93-8.51,80,80,0,0,1-14.43-8.59c-6.4-5-12-12.64-6-18.89s8.15-8.23,8.15-8.23L292.48,283S317.15,245.8,328.7,268.72Z"/></g><g class="acf8db99-e91a-46ac-8e5d-bf9f6fa5a138"><path class="b836044c-fc70-409e-a390-45bf1b3f661f" d="M260.84,315A19.4,19.4,0,0,1,249,320.16a10.91,10.91,0,0,1-6-1.27,73.24,73.24,0,0,1-7.93-5c-4.7,1.1-7.44-2.75-11.45-6.25-3.63-3.17-9.12-6.37-8.34-11.53a224.48,224.48,0,0,1-15.72-19c3.8-.16,9.29-.34,9.29-.34h9.91s-6.07,5.68-1.85,15.42c.14.32.29.65.46,1l2-4s.4,5.72,8,12.57a19.72,19.72,0,0,0,16.19,4.83l2.07-2h0l2.06-2Z"/></g><g class="acf8db99-e91a-46ac-8e5d-bf9f6fa5a138"><path class="b836044c-fc70-409e-a390-45bf1b3f661f" d="M303.27,214.5s-7,12.33-12.75,16.14l11.82,8.1,16.13-24.33-13.06.71Z"/></g><g class="acf8db99-e91a-46ac-8e5d-bf9f6fa5a138"><path class="b836044c-fc70-409e-a390-45bf1b3f661f" d="M311.71,197.52l.6,10.66-3.79,6.24s-.56.38-1.46.92l-7.25.57a.8.8,0,0,1-.87-.8.79.79,0,0,1,.36-.66l9.05-5.88a1.29,1.29,0,0,0,.59-1.27l-1-7.35a1.3,1.3,0,0,0-1-1.09,12.61,12.61,0,0,1-9.45-10.64l-2.64-20.71a41.42,41.42,0,0,1,8.71-3c0,.54.51,21.5,4.12,26.4s4.62,2.17,4.62,2.17Z"/></g><g class="acf8db99-e91a-46ac-8e5d-bf9f6fa5a138"><path class="b836044c-fc70-409e-a390-45bf1b3f661f" d="M295.62,311.24s8.11,6.4,11,13,8.49,16.67,10.61,11.7.7-7.63.17-8.19-4.07-4.93-4.07-4.93l-6.71-4.27-8-5.66Z"/></g></g></svg>